<?xml version="1.0" encoding="UTF-8"?>
<svg xmlns="http://www.w3.org/2000/svg" viewBox="0 0 10100 1717">
  <defs>
    <style>
      .cls-1 {
        fill: #ff1000;
      }

      .cls-1, .cls-2, .cls-3, .cls-4, .cls-5, .cls-6, .cls-7, .cls-8, .cls-9, .cls-10, .cls-11, .cls-12, .cls-13, .cls-14, .cls-15, .cls-16, .cls-17, .cls-18, .cls-19 {
        stroke: #000;
        stroke-miterlimit: 10;
      }

      .cls-1, .cls-2, .cls-5, .cls-6, .cls-7, .cls-10, .cls-11, .cls-12, .cls-13, .cls-14, .cls-16, .cls-17, .cls-18 {
        opacity: .5;
      }

      .cls-2 {
        fill: #f40022;
      }

      .cls-3, .cls-13 {
        fill: #1f00d7;
      }

      .cls-3, .cls-19 {
        opacity: .49;
      }

      .cls-4 {
        opacity: .52;
      }

      .cls-4, .cls-12 {
        fill: #9f0088;
      }

      .cls-5 {
        fill: #950028;
      }

      .cls-6 {
        fill: #f4002a;
      }

      .cls-7 {
        fill: #b4000a;
      }

      .cls-8, .cls-9, .cls-15 {
        opacity: .51;
      }

      .cls-8, .cls-18 {
        fill: #00aa80;
      }

      .cls-9, .cls-19 {
        fill: #9f0048;
      }

      .cls-10 {
        fill: #8eff99;
      }

      .cls-11 {
        fill: #9f0000;
      }

      .cls-14, .cls-15 {
        fill: #9f0068;
      }

      .cls-16 {
        fill: #9f0008;
      }

      .cls-17 {
        fill: #ff0a11;
      }
    </style>
  </defs>
  <g id="yolk">
    <path class="cls-10" d="m2419.87,483.85c-221.78,220.69-249.44,304.28-256.85,369.7-9.86,87,13,169.03,18.38,187.4,21.97,75.04,57.99,132.61,111.83,200.17,113.84,142.87,221.4,277.86,422.3,363.06,63.97,27.13,182.94,68.53,335.49,69.96,133.81,1.25,235.08-28.79,288-44.94,82.93-25.31,139-53.76,225.19-98.04,95.22-48.92,166.46-94.74,308.94-186.38,21.15-13.61,113.85-76.47,299.23-202.21,55.54-37.67,83.66-56.83,100.6-72.51,0,0,90.12-83.46,118.98-100.6.25-.15,1.51-.88,3.06-2.04,0,0,5.97-4.45,10.21-11.74,21.26-36.57,12.26-84.77,12.26-84.77-10.9-58.33-58.66-99.17-75.06-112.85-147.26-122.81-237.45-175.15-237.45-175.15-275.18-159.68-316.75-239.04-526.47-308.43-35.46-11.73-68.05-20.64-87.83-26.04-68.16-18.63-188.71-47.96-357.45-65.87-160.39-17.03-240.59-25.55-294.64-14.81-123.77,24.59-223.77,122.09-418.72,316.09Z"/>
  </g>
  <g id="brain">
    <path class="cls-17" d="m561.66,883.17c32.51,70.99,106.06,97.98,136.85,109.28,54.07,19.84,132.79,7.54,288-17.87,105.5-17.27,144.35-29.11,156.77-59.74,11.72-28.91-9.36-51.77,7.66-103.66,11.12-33.91,25.27-39.84,22.98-61.79-3.25-31.07-35.02-51.71-60.77-68.43-27.1-17.6-45.08-22.08-95.49-40.85-54.22-20.19-70.73-28.89-90.89-36.26-32.15-11.75-175.58-64.16-279.83,8.17-80.38,55.76-127.56,178.8-85.28,271.15Z"/>
  </g>
  <g id="lens">
    <path class="cls-11" d="m1139.19,80.96c-23.04,17.44-31.71,39.56-43.4,69.45-12.44,31.78-29.03,74.16-10.21,113.87,10.14,21.4,26.37,33.18,41.87,44.43,12,8.71,42.65,30.34,87.32,32.68,11.42.6,68.35,3.59,110.3-38.81,27.38-27.67,33.94-60.08,36.77-75.06,2.87-15.21,10.93-58.02-13.79-99.57-26.87-45.18-73.8-57.45-90.38-61.79-15.23-3.98-73.49-19.22-118.47,14.81Z"/>
    <path class="cls-11" d="m1011.02,1367.77c-6.82,9.74-22.42,32.6-26.55,65.87-3.58,28.78,3.26,50.62,11.23,76.09,9.36,29.91,15.12,48.28,31.66,65.87,26.93,28.64,62.67,34.19,85.79,37.79,17.64,2.74,51.75,7.6,90.89-8.17,7.48-3.01,40.56-17.02,67.4-52.09,8.22-10.74,25.1-33.33,30.64-67.4,6.48-39.9-6.59-70.93-13.28-86.81-6.59-15.65-21.26-44.31-51.06-68.94-11.16-9.22-28.42-23.48-55.15-30.64-37.67-10.09-69.31.58-85.79,6.13-13.64,4.6-55.82,19.47-85.79,62.3Z"/>
  </g>
  <g id="retinal_pigmented_epithelium" data-name="retinal pigmented epithelium">
    <path class="cls-16" d="m929.63,1486.56c.63-2.01-27.75-8.7-63.12-28.41-20.61-11.49-55.54-30.95-83.94-68.86-10.13-13.53-37.85-51.56-41.68-107.31-.33-4.81-4.31-78.71,45.45-139.4,29.91-36.49,70.05-56.98,118.47-81.7,7.07-3.61,17.41-8.86,30.13-14.3,13.81-5.9,87.52-36.38,190.47-32.17,71.77,2.94,124.27,21.37,161.36,34.72,41.18,14.82,88.91,32.01,140.71,72.85,22.21,17.51,70.86,56.73,105.93,126.3,10.73,21.28,34.02,68.71,36.53,134.12,1.22,31.65,2.7,70.17-19.17,112.52-5.91,11.44-30.11,58.32-81.7,80.17-37.63,15.94-78.27,13.67-112.85,11.74-20.58-1.15-41.36-2.55-41.36-2.55-44.96-3.04-54.72-4.56-55.11-2.74-.67,3.08,25.8,14.59,57.16,17.04,14.74,1.15,20.62-.48,38.3-1.02,34.23-1.06,55.81,3.7,66.92,4.66,49.15,4.26,113.88-46.56,145.52-102.63,39.16-69.39,23.63-139.69,14.55-180.76-21.95-99.32-84.59-160.1-114.66-188.5-58.28-55.05-117.22-79.22-152.65-93.35-23.07-9.2-87.02-32.82-173.86-37.53-96.84-5.25-169.17,15.98-186.88,21.45-60.05,18.52-122.38,37.74-171.57,97.27-14.89,18.02-54.2,67.03-56.68,140.16-2.19,64.63,25.51,111.65,36.76,128.67,33.03,49.94,76.61,71.61,91.6,78.82,37.5,18.05,74.66,23.02,75.37,20.75Z"/>
    <path class="cls-16" d="m1103.45,102.91c1.73,7.34-48.09,22.19-101.11,44.94-64.14,27.52-96.2,41.28-126.33,69.58-14.14,13.29-69.14,64.97-70.27,142.85-1.05,72.85,45.69,124.03,65.67,145.91,27.4,30,57.14,47.68,70.16,55.29,20.59,12.04,20.09,8.62,96.05,41.99,35.72,15.69,45.43,20.67,65.32,25.93,30.12,7.97,53.97,8.76,66.89,9.19,125.23,4.16,238.5-44.31,238.5-44.31,48.32-20.68,135.89-59.4,204.23-149.73,25.13-33.22,66.63-89.6,66.38-164.43-.04-13.15-.47-44.98-16.34-81.19-14.59-33.29-35.07-53.94-53.6-72.63-17.41-17.56-34.08-34.37-60.27-47.37-28.69-14.24-52.4-15.76-93.45-18.38-21.07-1.35-89.62-5.73-132.77,6.64-4.98,1.43-24.69,7.4-26.78,3.2-.77-1.54,1.11-3.92,1.75-4.74,11.79-14.95,77.46-13.43,84.77-13.28,61.38,1.31,52.69-6.97,87.34-3.43,67.27,6.86,114.7,39.54,125.59,47.35,19.48,13.96,60.26,43.99,83.23,100.09,24.45,59.72,14.1,113.27,8.68,139.4-14.85,71.62-54.4,116.9-81.19,147.57-68.36,78.27-147.58,110.82-190.7,128.54-48.43,19.9-88.77,28.49-102.92,31.29-38.82,7.69-68.62,9.13-112.34,11.23-47.07,2.27-70.61,3.4-87.83,0-27.59-5.45-34.38-12.49-104.17-33.19-17.5-5.19-20.04-5.63-27.57-8.68-25.92-10.5-39.7-23.08-69.45-45.45-34.87-26.22-32.35-21.28-44.94-32.17-48.53-42.01-64.87-97.24-67.4-106.21-4.22-14.95-16.49-60.64-1.02-114.89,18.23-63.94,63.69-100.23,87.83-119.49,30.89-24.65,68.25-42.85,70.47-43.91,8.93-4.3,17.53-7.97,34.72-15.32,49.39-21.1,39.47-13.95,57.7-22.98,13.39-6.63,24.45-13.32,40.85-12.77,3.88.13,13.56.46,14.3,3.57Z"/>
  </g>
  <g id="retinal_photoreceptor_layer" data-name="retinal photoreceptor layer">
    <path class="cls-5" d="m1477.13,1243.51c22.37,33.46,32.34,61.24,35.23,69.7,7.64,22.3,16.11,55.9,15.32,97.27-.73,38.11-1.26,65.71-19.47,90-22.29,29.73-58.05,37.11-81.7,41.99-75.07,15.49-121.56-17.49-152.62,12.48-5.83,5.62-13.75,16-10.78,22.13,3.24,6.68,17.45,4.27,50.5,6.24,16.22.97,14.88,1.68,31.21,2.84,31.79,2.26,55.27,3.93,81.7-.57,15.5-2.64,44.6-7.92,73.76-28.94,24.93-17.97,37.94-38.82,43.69-48.23,36.4-59.61,27.44-126.13,23.26-157.16-10.56-78.39-47.79-131.42-63.28-152.94-9.23-12.82-55.16-74.82-140.41-117.13-12.71-6.31-21.85-9.98-35.18-15.32-57.24-22.95-133.06-53.36-231.12-51.37-28.9.59-86.13,4.53-151.29,28.67-8.24,3.05-33.36,12.64-64.11,29.5-37.63,20.64-65.6,35.98-90.78,65.25-10.38,12.06-41.37,49.1-48.44,106.35-8.32,67.47,22.18,117.71,31.34,132.3,27.73,44.17,65.04,66.17,84.89,77.87,25.64,15.12,39.59,16.53,62.7,27.3.53.25,7.81,3.64,17.73,4.61,6.01.59,8.35-.17,9.5-.64,1.67-.68,5.92-2.8,10.28-12.77,2.14-4.89,7.59-17.31,5.04-25.82-4.61-15.37-35.24-17.59-53.33-20.99-51.21-9.64-100.29-47.27-120.66-86.14-31.4-59.89,1.82-129.42,6.05-137.98,24.86-50.16,67.28-71.73,118.79-97.93,29.82-15.16,104.13-52,207.56-49.78,16.24.35,95.51,2.98,185.35,46.72,35.16,17.12,115.2,61.6,169.27,142.46Z"/>
    <path class="cls-5" d="m1098.34,144.28c-3.59,9.33-5.73,14.74-10.72,19.91-7.19,7.46-15.86,9.84-18.89,10.72-28.38,8.22-103.86,40.92-134.5,57.83-26.69,14.73-70.56,38.96-84.05,85.14-10.83,37.09,3.03,70.87,11.29,90.25,29.51,69.2,90.71,103.3,127.6,123.2,114.12,61.55,225.81,54.04,262.98,51.06,23.87-1.91,133.39-12.4,237.45-82.21,54.46-36.54,83.53-73.3,96.51-91.4,13.48-18.79,30.46-42.96,39.85-79.53,1.73-6.75,9.6-38.84,4.58-81.32-3.54-29.97-6.85-58.02-24.51-80.68-44.06-56.52-154.1-49.55-168-48.51,0,0-76.18,5.67-102.35-10.84-3.86-2.44-12.39-9.2-19.69-15.71-14.21-12.69-14.02-15.73-13.79-16.85.96-4.66,8.95-6.97,24.51-9.7,33.25-5.84,47.49-5.62,47.49-5.62,68.97,1.06,62.54-4.07,93.96-.51,29.56,3.35,55.62,6.3,85.79,21.45,36.78,18.47,57.89,44.13,72,61.28,14.37,17.46,34.26,41.63,45.45,79.66,13.93,47.32,5.81,86.98,2.06,104.3-1.6,7.37-8.71,38.35-35.76,82.6-11.91,19.47-42.62,65.94-101.62,112.85-82.43,65.54-164.51,87.75-213.96,100.6,0,0-114.63,29.77-195.57,12.26-15.2-3.29-29.62-7.66-29.62-7.66-23.7-7.18-39.13-14.46-58.72-22.98-34.28-14.91-44.39-17.6-60.26-24.51-15.03-6.54-70.67-30.77-111.77-77.75-15.17-17.34-68.81-78.65-58.98-161.61,8.33-70.33,57.37-114.73,71.18-126.25,16.94-14.14,34.95-23.56,70.98-42.38,30.28-15.82,50.78-23.84,78.64-34.72,67.97-26.56,75.3-21.43,77.15-18.76,2.23,3.24-.74,10.97-6.68,26.42Z"/>
  </g>
  <g id="retinal_nuclear_layers" data-name="retinal nuclear layers">
    <path class="cls-19" d="m1497.94,121.69c-18.69,9.72,20.19,77.3,7.66,152.42-10.17,60.95-49.81,100.62-60.36,110.91-28.48,27.76-57.6,39.81-83.4,50.5-10.06,4.17-54.8,22.11-116.88,25.53-9.02.5-62.63,3.05-121.42-13.05-23.63-6.47-47.19-15.71-53.33-18.16-10.7-4.25-30.86-12.27-44.26-19.86-42.36-23.99-85.83-82.64-75.64-132.81,6.14-30.2,30.31-50.36,24.01-56.7-4.27-4.29-18.5,1.79-32.91,7.94-4.35,1.86-13.2,5.68-22.7,11.91-19.02,12.49-59.22,38.88-69.79,85.11-6.12,26.76.32,48.71,5.67,66.95,11.92,40.64,35.59,66.07,48.22,79.33,22.96,24.1,44.97,36.46,73.2,52.31,7.41,4.16,38.76,21.5,77.16,34.61,104.1,35.55,208.6,22.51,224.94,20.31,35.14-4.72,123.21-17.58,212.5-79.32,78.04-53.95,115.12-116.28,127.09-145.82,10.08-24.89,13.62-49.36,13.62-49.36.88-6.06,3.8-28.24,0-58.44-4.35-34.62-7.63-60.67-27.8-82.84-16.83-18.5-38.82-27.02-51.06-31.77-14.44-5.6-26.72-7.7-32.34-8.51-12.79-1.84-19.19-2.76-22.19-1.2Z"/>
    <path class="cls-9" d="m869.91,1408.56c21.7-6.88-.58-71.54,36.31-128.79,12.45-19.32,27.2-30.93,41.99-42.55,32.82-25.81,64.18-36.44,87.94-44.26,22.95-7.55,44.29-14.57,72.62-14.75,17.09-.11,42.32,2.24,48.79,2.84,15.85,1.47,23.78,2.21,31.21,3.4,18.87,3.03,21.6,5.3,30.64,3.97,12.17-1.78,17.71-7.42,23.26-3.97,4.96,3.08,2.93,9.05,8.51,14.18,5.62,5.17,13.28,4.25,18.72,4.54,12,.65,20.67,8.18,38.01,23.26,22.79,19.82,45.03,39.16,63.55,72.06,6.21,11.04,37.9,69.63,27.8,142.98-7.72,56.08-35.8,91.22-21.56,103.83,4.37,3.87,15.4,2.39,37.45-.57,17.8-2.39,36.28-5.03,57.3-15.89,7.09-3.66,16.6-8.57,25.53-17.02,23.28-22.02,26.75-53.03,29.5-81.13.99-10.05,3.62-43.21-6.24-86.24-2.33-10.14-12.87-53.68-44.82-102.13-3.47-5.27-17.27-25.86-40.28-49.93-9.37-9.8-43.03-43.97-100.99-76.6-32.39-18.23-87.65-48.65-165.67-59.01-104.39-13.85-188.4,16.33-229.79,35.18-54.21,24.68-125.99,57.37-152.06,131.06-4.17,11.78-23.61,66.75,2.84,118.01,16.64,32.26,45.05,50.64,54.47,56.74,12.93,8.36,19.39,12.55,24.96,10.78Z"/>
  </g>
  <g id="retinal_inner_plexiform_layer" data-name="retinal inner plexiform layer">
    <path class="cls-14" d="m979.99,229.55c6.27,2.63-11.24,31.42-5.94,67.53,7.58,51.61,56.81,84.56,71.23,94.21,25.57,17.11,49.84,23.99,73.15,30.6,9.17,2.6,33.85,9.18,66.38,11.91,35.17,2.95,105.33,8.85,179.86-27.2,35.1-16.98,88.93-43.01,106.1-94.22,16.3-48.64,13.62-78.87,13.62-78.87-.31-3.53-2.26-23.81,3.4-48.79,1.28-5.66,4.78-21.05,8.62-20.91,5.43.19,8.43,31.22,8.97,36.8,2.86,29.52,6.65,68.73-12.48,114.61-24.15,57.92-68.29,86.85-83.4,96.45-15.29,9.72-28.09,15.07-44.06,21.74-18.28,7.64-52.42,21.63-97.79,27.05-51.35,6.14-90.91-1.81-121.42-7.94-38.22-7.68-65.65-18.25-76.6-22.7-28.1-11.4-44.19-17.93-62.41-32.34-8.88-7.03-54.56-44.65-57.87-98.16-1.18-19.1,3.51-32.58,5.67-38.01,6.69-16.78,20-33.86,24.96-31.77Z"/>
    <path class="cls-15" d="m893.63,1380.86c8.62-.45,7.16-33.41,22.81-65.35,10.71-21.85,24.95-34.08,43.82-50.3,43.82-37.66,89.7-50.66,105.96-54.66,0,0,34.34-8.46,101.6-4.31,15.07.93,22.6,1.39,28.9,6.02,1.31.96,3.09,2.47,5.57,2.41,6.98-.16,14.88-12.49,12.59-20-2.33-7.66-15.15-9.95-30.64-11.91-38.94-4.93-58.4-7.39-83.4-4.54-22.83,2.61-68.13,8.25-118.36,37.22-12.05,6.95-65.89,37.99-85.33,81.36-3.44,7.68-6.27,18.55-11.91,40.28-3.52,13.54-5.27,22.15-1.56,31.54.63,1.6,4.95,12.52,9.96,12.25Z"/>
    <path class="cls-14" d="m1250.06,1217.92c3.78,7.28,14.12,6.05,26.1,9.65,12.39,3.72,19.64,10.69,34.13,24.62,27.52,26.45,41.04,57.49,49.27,76.37,3.11,7.13,14.29,33.57,20.43,68.09,1.6,9,2.4,13.5,2.84,19.86,1.49,21.58-2.94,31.97.57,53.9,1.2,7.47,2.16,13.51,3.97,13.62,4.75.28,14.9-40.33,13.62-81.13-1.46-46.4-17.29-80.07-23.83-93.62-5.21-10.78-14.09-28.84-31.21-47.66-3.76-4.13-.89-.58-22.13-20.99-16.52-15.88-25.46-24.96-40.85-32.34-3.27-1.57-6.05-2.69-7.94-3.4-3.34-.89-7.98-1.97-13.62-2.84-5.9-.91-7.3-.71-8.51,0-4.13,2.43-5.56,10.64-2.84,15.89Z"/>
  </g>
  <g id="retinal_glanglion_cell_layer" data-name="retinal glanglion cell layer">
    <path class="cls-4" d="m1069.63,181.33c10.56,9.01-7.93,33.71-5.67,67.52,2.27,34.07,24.33,58.27,31.21,65.82,40.32,44.27,102.89,41.88,129.93,40.85,28.72-1.09,85.65-3.24,127.66-47.66,33.9-35.85,56.17-97.19,39.15-144.11-6.01-16.56-16.63-30.55-10.21-39.72,5.87-8.39,19.6-3.61,62.41-4.54,34.38-.75,37.53-4.09,43.12.57,14.12,11.77-1.78,36.65-2.27,105.53-.07,10.13.19,20.37-1.7,35.74-1.63,13.19-3.81,30-11.92,49.93-4.78,11.75-14.12,34.06-35.74,53.33-7.19,6.41-13.87,10.52-27.23,18.72-7.4,4.55-27.53,16.58-49.93,26.1-48.9,20.78-98.16,25.11-111.77,26.1-63.84,4.63-112.06-8.57-123.69-11.91-23.41-6.74-64.83-19.13-103.83-53.33-27.89-24.46-35.83-43.67-38.01-49.36-10.11-26.38-7.05-51.09-5.67-61.28,1.52-11.23,2.79-20.63,8.51-31.77,14.51-28.24,42.67-37.97,54.47-42.55,12.09-4.69,24.65-9.57,31.21-3.97Z"/>
    <path class="cls-12" d="m1162.68,1272.39c-31.36,17.7-47.05,5.91-85.11,17.59-11.05,3.39-39.45,12.28-62.41,36.88-26.1,27.97-38.31,69.17-40.85,77.73-4.14,13.97-3.87,29.65-13.05,32.91-5.6,1.99-9.79-2.13-28.94-7.38-6.06-1.66-4.27-.87-20.43-4.54-33.6-7.62-38.17-10.31-39.15-14.18-.85-3.39,2.02-3.79,5.67-14.18,4.06-11.56,3.3-18.99,6.81-19.86,3.08-.77,5.06,4.61,8.51,3.97,3.44-.64,4.69-6.61,7.94-17.59,2.64-8.9.31.14,5.67-17.59,5.17-17.07,5.91-20.74,9.08-28.94,0,0,2.29-5.92,5.11-11.91,5.08-10.81,22.37-35.33,67.52-61.84,17.69-10.39,41.54-24.15,76.6-32.91,22.32-5.58,47.6-5.42,98.16-5.11,17.68.11,33.02.72,37.45,9.65,3.89,7.84-2.41,18.58-6.81,26.1-11.36,19.39-28.04,29.1-31.77,31.21Z"/>
    <path class="cls-12" d="m1240.41,1299.06c2.17,18.3,10.48,21.6,26.67,50.5,13.91,24.83,20.69,45.44,25.53,60.14,8.32,25.29,12.48,37.93,11.92,56.17-.73,23.49-7.94,44.26-7.94,44.26-6.46,18.6-13.11,25.15-9.65,30.64,4.38,6.93,16.82-.64,45.39,2.27,20.05,2.04,29.55,7.37,36.88,1.13,1.92-1.63,2.7-3.22,6.81-17.59,5.2-18.19,7.79-27.29,8.51-33.48,1.23-10.62-.5-11.27-1.13-30.07-1.03-30.77,3.36-36.56-.57-57.3-.51-2.72-2.23-9-5.67-21.56-3.8-13.89-6.71-24.51-10.21-35.18-5.73-17.47-11.31-34.45-23.26-53.9-7.01-11.41-14.06-20.17-19.29-26.67-9.05-11.25-16.09-18.42-19.86-22.13-9.63-9.48-14.45-14.21-21.56-17.59-8.91-4.23-8.31-.93-23.26-6.24-2.62-.93-6.64-2.45-9.65-.57-2.55,1.6-3.17,4.88-3.4,6.24-2.91,16.73-4.37,25.09-3.97,31.21,1.55,23.63-4.12,24.15-2.27,39.72Z"/>
  </g>
  <g id="optic_nerve_head" data-name="optic nerve head">
    <path class="cls-2" d="m1180.84,1297.92c15.59,3.41,28.61,11.22,33.48,14.18,12.59,7.67,16.28,13.08,20.43,11.35,3.4-1.42,4.54-6.57,5.67-27.23,1.37-25.12-.05-22.35,1.13-32.91,1.76-15.74,4.94-22,6.81-43.69.29-3.33.46-6.08.57-7.94-.22-1.4-.52-3.61-.69-6.33-.48-7.43.6-9.24-.44-12.96-.24-.84-1.96-6.74-6.81-9.08-5.83-2.82-12.78,1.14-14.75,2.27-10.18,5.8-11.27,15.3-20.43,34.04-5.09,10.42-9.07,18.56-16.45,27.8-6.96,8.71-11.6,11.72-27.23,28.94-10.37,11.42-12.38,14.56-11.35,17.02,1.97,4.71,12.48.69,30.07,4.54Z"/>
  </g>
  <g id="olfactory_pit" data-name="olfactory pit">
    <path class="cls-1" d="m658.28,469.55c-4.3,5.52-23.92,31.58-27.69,70.47-2.26,23.33-4.09,42.53,7.15,52.09,18.18,15.45,46.29-16.08,119.49-23.49,27.57-2.79,39.74,0,48-10.21,15.62-19.3-3.81-59.11-13.62-79.21-14.47-29.63-25.35-51.94-47.66-57.87-39.81-10.58-79.75,40.63-85.67,48.23Z"/>
    <path class="cls-1" d="m609.15,978.15c-10.36,5.18-15.41,14.48-17.82,19.06-8.65,16.46-6.26,31.92-3.4,57.3,6.61,58.75,2.08,49.64,5.9,63.55,3.03,11,14.35,50.29,50.04,77.62,13.15,10.07,21.1,16.15,32.68,16.34,22.16.36,37.82-21.19,65.36-60.26,26.13-37.06,39.17-56.06,37.79-78.64-2.12-34.55-28.74-56.68-30.64-58.21-6.62-5.34-18.59-9.84-42.55-18.84-7.18-2.7-28.47-10.54-57.53-16.91-23.8-5.22-32.07-4.9-39.83-1.02Z"/>
  </g>
  <g id="notochord">
    <path class="cls-7" d="m8261.06,812.19c-18.47,13.47-33.46,8.01-35.74,14.81-3.37,10.02,25.62,32.64,57.7,42.38,8.76,2.66,15.47,3.67,25.02,5.11,36.93,5.56,40.57-1.73,64.85,3.06,17.59,3.47,36.1,11.33,58.72,20.94,4.94,2.1,11.06,4.8,19.92,6.13,10.52,1.58,20.71.61,37.28-4.09,31.93-9.04,32.86-16.39,57.19-21.45,17.14-3.56,18.95-.39,33.19-5.11,13.43-4.45,30.45-10.09,34.72-22.98,4.74-14.32-10.85-23.72-7.66-49.02,1.21-9.62,3.58-9.17,3.06-13.79-2.25-20.09-46.69-25.35-161.36-46.47-5.95-1.1-16.71-3.08-30.13-.51-20.76,3.98-23.03,14.1-45.45,24.51-21.7,10.07-26.97,4.02-66.38,17.36-8.49,2.87-18.26,6.54-28.6,14.3-8.88,6.66-8.84,9.34-16.34,14.81Z"/>
  </g>
  <g id="somitoc_muscle" data-name="somitoc muscle">
    <path class="cls-3" d="m7771.36,729.98c2.44,34.24,89.1,67.17,135.72,57.87,6.1-1.22,23.35-5.52,45.96-2.84,11.14,1.32,15.96,3.43,30.07,6.81,13.37,3.2,34.96,8.37,53.9,8.51,39.79.3,44.73-21.75,76.03-17.02,18.82,2.84,18.59,11.05,44.82,16.45,13.07,2.69,30.02,6.18,48.23,1.13,35.97-9.97,45.4-44.57,67.52-40.85,9.55,1.6,8.52,8.17,19.29,13.62,27.31,13.81,53.94-18.32,122.55-34.61,23.55-5.59,37.37-8.7,55.04-4.54,15.68,3.69,23.06,10.45,47.66,16.45,12.07,2.95,20.03,3.7,31.77,5.11,55.38,6.65,59.99,11.8,82.38,12.71,41.09,1.67,36.22-15.23,81.02-17.25,43.93-1.98,98.5,12,124.26,20.99,2.8.98,13.86,4.9,28.94,5.67,6.31.32,36.16,1.86,42.55-9.42,7.98-14.07-19.19-50.5-51.63-73.42-39.38-27.82-89.04-30.46-188.37-35.74-36.57-1.95-69.36-3.56-113.48.57-54.82,5.13-51.01,12-82.27,10.78-58.81-2.29-83.41-27.04-127.09-17.02-5.15,1.18-19.63,4.93-42.55,9.65-21.16,4.36-31.74,6.53-36.31,6.81-43.22,2.59-54.18-31.81-90.21-26.1-12.53,1.99-29.04,8.97-42.55,18.16-13.58,9.23-15.65,14.92-24.96,16.45-14.35,2.36-20.96-9.25-43.12-18.72-22.14-9.47-42.13-9.26-51.06-9.08-16.84.34-39.66.81-59.01,15.32-10.93,8.2-16.76,17.89-28.37,17.59-5.57-.14-7.54-2.46-19.29-5.11,0,0-8.55-1.93-20.99-2.84-25.68-1.87-53.42-3.89-78.64,9.99-5.15,2.83-39.37,21.67-37.79,43.91Z"/>
    <path class="cls-13" d="m8622.54,865.58c11.48-2.01,15.75-2.51,19.97-2.84,23.01-1.79,40.95,1.9,54.92,5.11,37.66,8.66,97.15,25.51,115.18,20.99,8.02-2.01,15.89-5.11,15.89-5.11,5.88-2.32,9.97-4.42,11.35-5.11,14.19-7.06,33.75-9.29,36.88-9.65,17.44-1.99,38.33-4.53,53.9,7.38,10.15,7.76,20.62,23.1,19.29,37.45-4.04,43.74-116.63,66.56-202.55,83.97-67.11,13.6-99.66,12.84-124.82,9.65-34.23-4.35-52.66-6.69-77.16-16.45-28.96-11.54-43.23-24.2-65.25-19.86-16.89,3.33-16.03,12.28-37.45,21.56-27.72,12.01-55.08,8.23-77.73,5.11-41.38-5.71-42.05-17.48-65.25-13.62-22.97,3.82-24.88,15.79-57.87,22.13-14.59,2.8-14.78.57-38.01,4.54-18.26,3.12-24.53,5.59-35.74,3.4-3.96-.77-14.68-2.86-24.96-10.78-10.31-7.95-12.27-15.66-19.86-16.45-6.84-.71-12.33,4.8-15.32,7.38-21.6,18.59-64.14,13.97-84.54,8.51-3.86-1.03-42.55-11.68-57.3-29.5-1.46-1.77-6.49-8.2-14.18-9.08-6.07-.69-10.82,2.42-13.62,3.97-9.31,5.17-19.06,4.96-38.58,4.54-24.1-.52-74.83-16.59-78.3-47.66-2.17-19.44,14.49-41.76,34.04-50.5,28.8-12.87,49.17,10.32,89.08-3.4,14.21-4.89,12.21-8.03,31.21-14.75,27.13-9.6,50.18-9.91,60.14-9.65,12.88.34,25.53.67,40.85,6.24,27.43,9.98,32.82,25.64,49.93,23.83,11.42-1.21,12.22-8.52,28.94-15.32,19.66-7.99,37.91-5.75,43.12-5.11,42.39,5.21,54.1,42.6,83.97,37.45,9.12-1.57,6.88-4.86,23.26-10.21,23.2-7.58,43.1-6.01,53.33-5.11,11.95,1.06,32.14,2.84,53.9,14.18,7.53,3.92,29.93,16.65,47.66,19.29,2.73.41,6.16.7,10.21,0,8.66-1.49,13.5-6.32,19.29-10.21,4.62-3.11,11.4-5.29,24.96-9.65,16.53-5.31,55.35-15.38,107.23-26.67Z"/>
  </g>
  <g id="optic_chiasm" data-name="optic chiasm">
    <path class="cls-6" d="m1216.81,706.49c-15.08,10.14-24.35,25.82-42.89,57.19-11.1,18.78-18.54,31.57-23.72,50.84-1.38,5.14-6.22,24.2-5.11,50.5.99,23.35,2.94,69.18,34.95,102.92,36.18,38.14,97.46,46.78,105.19,33.7,6.23-10.55-22.6-34.81-81.13-123.57-9.32-14.14-15.79-24.44-16.45-39.15-.44-9.76,1.24-31.08,49.36-82.84,37.79-40.64,58.47-50.84,55.04-59.01-4.43-10.54-45.9-10.3-75.23,9.42Z"/>
  </g>
  <g id="splanohnocranium">
    <path class="cls-18" d="m1568.92,602.89c-23.62,11.64-35.65,21.86-58.44,38.58-48.08,35.29-53.96,33.43-65.25,49.93-4.1,6-8.86,14.33-19.29,22.13-13.79,10.3-28.06,12.61-34.04,13.62-45.47,7.67-96.2,22-120.96,30.41-47.22,16.05-60.04,31-64,35.97-4.58,5.75-20.72,26.01-17.59,49.36,2.07,15.44,11.76,26.24,63.55,62.41,43.38,30.3,68.2,47.64,106.89,69.79,33.5,19.18,39.53,20.28,53.67,32.91,18.24,16.28,25.11,29.51,40.85,30.64,12.29.88,26.41-5.88,31.77-17.02,7.29-15.15-4.18-33.06-11.35-44.26-9.37-14.63-16.71-18.58-41.99-39.72-40.09-33.52-44.15-42.42-68.08-54.47-8.86-4.46-20.61-9.44-27.8-12.48-23.11-9.79-34.67-14.68-40.85-15.89-1.99-.39-9.51-1.79-18.16-6.24-9.41-4.84-10.95-8.56-11.35-9.65-2.41-6.66,2.67-14.01,3.97-15.89,11.44-16.55,37.8-2.8,74.33-15.32,36.96-12.67,63.98-45.25,66.95-49.36,2.9-4.01,4.39-5.7,7.38-9.08,3.54-4,5.2-5.42,6.24-6.24,3.5-2.76,6.82-4.22,9.08-5.11,10.89-4.28,68.54-23.4,87.94-31.21,16.28-6.55,36.94-14.86,53.9-34.61,23.81-27.72,32.77-69.16,21.56-77.16-2.03-1.45-6.53-3.09-28.94,7.94Z"/>
    <path class="cls-8" d="m1742.54,404.3c5.65,12.2,26.56,12.09,62.98,11.91,0,0,42.03-.21,60.14-15.32,6.93-5.78,10.21-13.05,10.21-13.05,1.8-3.98,4.18-9.25,2.84-14.18-1.73-6.37-8.94-9.48-33.82-17.48-17.39-5.59-26.08-8.38-28.03-8.62-4.86-.6-33.01-4.1-54.7,14.75-10.39,9.03-25.75,28.79-19.63,41.99Z"/>
  </g>
</svg>