<?xml version="1.0" encoding="UTF-8"?>
<svg xmlns="http://www.w3.org/2000/svg" viewBox="0 0 10100 1297">
  <defs>
    <style>
      .cls-1 {
        fill: #ff1000;
      }

      .cls-1, .cls-2, .cls-3, .cls-4, .cls-5, .cls-6, .cls-7, .cls-8, .cls-9, .cls-10 {
        stroke: #000;
        stroke-miterlimit: 10;
      }

      .cls-1, .cls-2, .cls-4, .cls-7, .cls-8, .cls-9, .cls-10 {
        opacity: .5;
      }

      .cls-2 {
        fill: #9f0048;
      }

      .cls-3, .cls-5, .cls-6 {
        opacity: .51;
      }

      .cls-3, .cls-8 {
        fill: #9f0008;
      }

      .cls-4, .cls-5 {
        fill: #950028;
      }

      .cls-6, .cls-10 {
        fill: #00aa80;
      }

      .cls-7 {
        fill: #8eff99;
      }

      .cls-9 {
        fill: #f0c;
      }
    </style>
  </defs>
  <g id="yolk">
    <path class="cls-7" d="m1762.17,502.62c-36.54,45.34-67.23,83.43-80.91,144.45-2.57,11.48-20.35,95.64,15.55,172.14,17.86,38.07,60.44,98.74,292.08,169.53,225.83,69.02,338.75,103.53,457.53,65.36,0,0,186.85-64.13,283.91-261.45,23.98-48.75,30.64-95.09,30.64-95.09,1.26-8.75,4.87-36.69,1.7-69.22-2.46-25.33-11.43-78.02-60.94-150.24-105.19-153.44-285.78-238.04-396.37-258.84-50.78-9.55-88.78-6.01-97.59-5.11-20.55,2.12-59.36,8.18-119.15,36.31-37.33,17.57-70.55,37.95-144.68,94.87-96.25,73.9-144.38,110.86-181.79,157.28Z"/>
  </g>
  <g id="heart">
    <path class="cls-9" d="m1406.77,643.55c-42.07,12.51-64.02-14.85-90.89-3.06-21.95,9.63-33.68,39.45-31.66,62.3,1.42,15.97,9.38,26.6,23.49,44.94,10.85,14.1,27.48,32.85,55.15,54.13,39.64,30.49,74.93,45.4,96,54.13,28.95,11.99,43.42,17.99,62.3,18.38,8.02.17,45.21.09,76.6-25.53,33.08-27,47.8-72.66,39.83-118.47,8.55-30.06,23.25-72.86,49.02-120.51,8.59-15.88,53.42-97.03,140.94-174.64,44.43-39.41,99.55-77.62,124.6-94.98,23.95-16.6,45.51-36.49,69.45-53.11,32.61-22.63,58.37-37.41,58.21-59.23-.01-2.03-.32-13.09-7.15-19.4-22.2-20.53-92.66,28.18-247.15,110.3-105.16,55.9-126.79,62.18-153.19,60.26-15.81-1.15-51.8-6.6-100.09,2.04-7.5,1.34-20.08,3.88-40.85,10.21-40.41,12.32-125.83,39.39-190.98,110.3-20.3,22.09-21.52,29.82-21.45,34.72.68,45.2,114.46,71.54,109.28,94.98-1.39,6.29-10.61,9.03-21.45,12.26Z"/>
  </g>
  <g id="retinal_pigmmented_epithelium" data-name="retinal pigmmented epithelium">
    <path class="cls-8" d="m607.79,109.77c-15.3-11.28-28.88-15.72-43.69-20.43-20.15-6.41-47.76-15.18-80-9.08-12.25,2.32-10.45,4-45.96,14.18-17.46,5.01-29.68,7.98-38.58,10.21-53.52,13.42-80.28,20.13-90.21,25.53-41.19,22.42-73.55,74.68-61.84,111.77,2.74,8.69,8.45,15.44,19.86,28.94,10.37,12.27,29.45,34.36,62.41,49.36,10.24,4.66,29.73,7.99,68.65,14.75,17.12,2.98,27.15,4.19,39.15.57,13.68-4.14,15-10.07,26.67-11.35,16.5-1.81,20.92,9.26,37.45,7.94,13.4-1.07,13.3-8.58,28.37-12.48,22.92-5.94,29.98,9.69,48.79,3.97,11.39-3.46,20.27-14.41,38.01-36.31,4.76-5.87,8.61-10.62,13.05-17.59,5.88-9.23,17.85-28.43,21.56-55.6,1.52-11.11,4.2-32.7-5.67-57.3-10.65-26.54-29.59-40.89-38.01-47.09Zm-22.69,96.45c-6.85,12.21-16.61,10.38-30.64,23.26-11.22,10.31-8.9,15.09-19.86,22.13-6.35,4.08-8.22,3.18-20.43,8.51-14.4,6.29-17.19,9.91-25.53,13.62-5.85,2.6-14.14,5.12-39.41,4.35-27.09-.82-52.59-1.6-83.15-14-16.88-6.85-26.85-11.05-35.18-22.13-1.58-2.1-15.72-21.55-10.03-45.72,4.84-20.53,20.45-31.27,28.03-36.46,10.14-6.94,19.95-9.99,26.25-11.44,5.75-.42,15.21-1.39,26.67-3.97,14.97-3.37,19.44-6.37,41.99-13.05,14.89-4.41,22.52-6.63,31.62-7.5,7.58-.72,7.08-1.01,27.7,0,10.57.52,21.11-.66,31.65-.09,9.03.49,16.73,1.56,24.27,3.62,9.37,2.56,14.09,3.73,18.75,7.23,8.36,6.29,11.21,15.02,15.24,27.38,2.45,7.51,3.98,12.41,2.84,18.72-.61,3.39-2.11,6.8-5.11,13.62-.41.93-3.69,8.39-5.67,11.91Z"/>
    <path class="cls-3" d="m547.65,1179.84c-4.29-7.06-14.46-7.85-20.99-8.51-16.83-1.69-33.27-6.13-49.93-9.08-18.58-3.29-26.75-7.43-41.42-11.91-40.99-12.54-59.87-5.48-94.18-10.78-12.84-1.99-73.5-11.36-113.48-59.57-9.23-11.13-37.93-49.14-35.18-99.86,4.69-86.42,96.55-132.7,113.48-140.71,58.14-27.52,112.49-20.13,164.54-13.05,29.59,4.02,77.87,11.12,128.79,43.12,30.15,18.95,49.23,39.12,66.95,57.87,27.73,29.33,52,55.08,66.95,96.45,7.96,22.02,21.63,59.85,6.81,100.99-3.51,9.75-13.58,37.71-41.42,53.33-5.42,3.04-34.26,19.23-61.84,10.21-8.96-2.93-19.49-9.07-35.18-7.38-2.15.23-14.96,1.62-15.32,5.11-.78,7.49,54.59,35.56,109.5,18.16,40.72-12.9,61.94-44.71,67.52-53.33,10.18-15.75,14.43-29.86,15.89-35.18,14.27-52.14-10.91-95.71-14.75-102.13-8.75-14.61-9.74-9.51-32.34-37.45-26.86-33.2-30.65-46.81-48.23-68.65-21.69-26.96-44.33-41.55-65.25-55.04-82.36-53.09-167.43-55.17-204.26-55.6-35.61-.42-61.92,3.85-72.06,5.67-29.43,5.28-63.27,11.35-95.89,31.77-18.16,11.37-74.67,51.55-85.67,125.39-10.07,67.57,25.48,118.27,32.34,127.66,31.38,42.93,82.87,72.51,129.36,76.6,19.57,1.72,60.22.88,92.48,8.51,3.87.92,13.15,3.26,26.1,4.54,22.02,2.18,23.43-1.8,36.88.57,20.78,3.66,21.99,13.97,44.82,17.02,4.96.66,22.17,2.96,26.1-4.54,1.7-3.24.5-7.53-1.13-10.21Z"/>
  </g>
  <g id="retinal_photoreceptor_layer" data-name="retinal photoreceptor layer">
    <path class="cls-4" d="m318.6,207.47c-.42,22.45,14.16,42.96,29.9,50.95,1.7.86,8.02,3,20.65,7.26,15.08,5.09,22.63,7.64,29.28,9.19,9.82,2.29,18.98,2.24,36.88,2.84,27.92.93,42.16,1.26,56.17-5.11,8.37-3.8,8.98-6.2,19.29-10.21,12.33-4.8,19.21-4.44,26.38-11.01,4.46-4.08,4.36-6.55,8.17-12.26,10.77-16.11,23.12-13.59,35.8-26.67,13.82-14.25,14.68-33.27,14.75-35.63.08-2.54.41-23.78-14.75-38.7-10.85-10.67-25.78-11.91-55.6-14.75-19.08-1.82-37.56-3.58-61.28,1.13-22.43,4.46-21.51,9.13-50.5,17.02-35.99,9.8-41.35,3.44-58.44,13.05-4.3,2.42-36.11,20.3-36.71,52.88Z"/>
    <path class="cls-5" d="m216.3,1020.4c4.23-3.22,5.77-7.73,6.24-9.08,8.46-24.11,22.16-46.04,32.91-69.22,13.08-28.21,44.93-39.25,82.27-52.2,70.97-24.61,133.12-6.44,150.35-1.13,14.15,4.35,48.96,15.44,82.84,44.26,9.52,8.1,21.85,22.8,46.52,52.2,32.85,39.14,49.27,58.71,56.17,73.19,9.18,19.27,12.07,33.62,28.37,53.33,8.92,10.79,21.57,26.09,31.21,23.26,14.6-4.28,16.75-48.54,10.21-82.27-5.97-30.81-19.73-53.16-28.37-66.95-9.65-15.41-18.73-25.59-36.88-45.96-21.26-23.85-34.59-38.81-55.6-54.47-21.08-15.71-39.23-24.1-53.33-30.64-10.61-4.92-52.71-23.8-113.48-31.21-31.12-3.8-60.93-7.43-99.86.57-47.72,9.8-79.48,31-87.94,36.88-18.1,12.57-43.2,30.01-59.57,62.41-21.92,43.39-19.19,95.78-6.81,100.43,3.28,1.23,10.06.16,14.75-3.4Z"/>
  </g>
  <g id="retinal_nuclear_layers" data-name="retinal nuclear layers">
    <path class="cls-2" d="m226.51,1081.11c16.33,18.84,33.37,28.69,44.82,35.18,6.17,3.49,20.93,11.42,41.42,17.59,7.5,2.26,33.21,9.54,66.95,9.65,17.85.06,21.98-1.94,35.18.57,13.91,2.65,19.12,6.73,36.31,11.91,11.39,3.43,17.34,4.13,35.74,7.38,74.26,13.1,86.39,21.02,105.53,18.16,3.1-.46,12.84-2.17,24.96.57,7.54,1.7,12.16,4.26,15.32,5.67,20.02,8.96,47.1,1.45,63.55-7.38,8.18-4.39,15.86-12.57,31.21-28.94,2.44-2.61,7.02-7.6,5.67-11.91-.97-3.1-4.53-4.33-7.38-5.67-3.98-1.87-8.89-6.92-18.72-17.02-14.05-14.43-28.36-49.08-39.72-69.79-6.73-12.28-17.16-24.83-38.01-49.93-31.39-37.78-47.09-56.67-69.79-73.76-39.49-29.72-80.42-39.47-100.43-43.12-55.21-10.07-97.64,1.91-120.62,8.4-42.62,12.03-61.18,28.17-68.94,35.74-6.76,6.6-11.62,12.85-14.81,17.36-2.08,4.19-5.06,10.18-8.68,17.36-13.07,25.96-11.56,22.16-14.47,28.37-10.77,23.01-12.18,34.43-20.43,35.74-4.57.73-9.11-1.94-11.35.57-2.51,2.82.47,9.3,1.7,11.91,11.44,24.26,17.17,36.39,24.96,45.39Z"/>
  </g>
  <g id="splanochnocranium">
    <path class="cls-10" d="m709.04,336.01c-24.16,22.02-40.87,37.67-45.19,62.81-2.54,14.77-1.11,34.67,6.89,37.53,1.79.64,7.21,1.61,31.85-24.62,14.92-15.88,17.32-20.92,26.55-31.15,29.57-32.77,51.77-33.07,53.62-51.57,1.08-10.8-5.24-23.17-14.3-27.06-14.96-6.44-34.58,11.44-59.43,34.07Z"/>
    <path class="cls-10" d="m653.9,817.77c3.83,14.92,25.64,14.2,65.1,32.17,25.7,11.7,49.39,22.48,68.17,45.96,7.81,9.76,5.04,9.55,29.1,45.96,14.97,22.64,23.3,33.69,36.76,36,6.93,1.19,17.53,1.28,21.45-4.6,3.51-5.26.14-12.89-4.39-22.81-26.15-57.18-32.02-65.62-36.96-72.17-5.19-6.87-10.2-13.45-18.18-21.28-16.64-16.32-32.6-24.76-43.92-30.64-86.41-44.86-95.86-42.59-101.81-39.23-10.67,6.03-18.03,20.07-15.32,30.64Z"/>
    <path class="cls-6" d="m980.18,463.15c-7.1,1.11-21.43,4.92-67.4,64.34-20.38,26.35-23.05,32.68-20.68,37.53,5.38,11.02,33.43,14.08,52.08,3.06,16.28-9.62,10.62-21.26,33.14-41.98,10.79-9.93,17.51-12.25,28.13-25.42,7.4-9.18,15.03-18.54,12.25-26.04-3.61-9.77-22.56-13.82-37.53-11.49Z"/>
    <path class="cls-6" d="m893.63,653.1c.06,19.16,26.84,26.24,54.38,50.55,20.44,18.05,13.77,23.54,50.55,68.17,24.36,29.55,31.87,33.33,36.46,31.56,7.73-2.97,7.75-21.82,6.64-32.17-2.09-19.48-10.59-30.94-44.63-74.45-29.22-37.35-35.32-44.68-49.02-51.32-14.46-7-40.77-14.81-50.55-3.83-3.78,4.24-3.83,9.87-3.83,11.49Z"/>
  </g>
  <g id="olfactory_pit" data-name="olfactory pit">
    <path class="cls-1" d="m164.38,310.11c-3.15,3.81-11.14,13.76-11.74,28.6-.08,1.95-.67,24.29,14.81,35.23,18.2,12.88,44.61.09,57.19-9.7,1.79-1.39,33.05-26.39,23.49-51.06-7.27-18.75-32.96-23.99-49.53-21.96-20.27,2.48-32.23,16.5-34.21,18.89Z"/>
  </g>
</svg>