<?xml version="1.0" encoding="UTF-8"?>
<svg xmlns="http://www.w3.org/2000/svg" viewBox="0 0 5400 2049">
  <defs>
    <style>
      .cls-1 {
        fill: #f0c;
        opacity: .49;
      }

      .cls-1, .cls-2, .cls-3, .cls-4, .cls-5, .cls-6 {
        stroke: #000;
        stroke-miterlimit: 10;
      }

      .cls-2 {
        fill: #c8ffb4;
      }

      .cls-2, .cls-4, .cls-5, .cls-6 {
        opacity: .5;
      }

      .cls-3 {
        fill: #8eff99;
        opacity: .52;
      }

      .cls-4 {
        fill: #b4000a;
      }

      .cls-5 {
        fill: #1f00d7;
      }

      .cls-6 {
        fill: #ff0a11;
      }
    </style>
  </defs>
  <g id="brain">
    <path class="cls-6" d="m1047.23,771.89c32.24,80.73,30.74,91.44,50.55,111.83,29.34,30.18,64.85,39.86,74.55,42.38,35.27,9.16,48.6-.37,164.94-7.66,26.88-1.68,36.71-1.83,50.04.51,35.58,6.25,43.69,21.03,72,18.38,18.97-1.78,30.35-2.23,36.77-4.6,12.33-4.55,17.92-10.18,28.09-17.36,6.98-4.94,31.82-22.49,58.72-27.06,11.32-1.92,29.32,1.75,64.85,9.19,23.04,4.82,44.29,10,53.11,12.26,28.55,7.31,43.7,12.38,67.4,12.77,15.06.24,26.44-1.52,29.62-2.04,33.25-5.42,42.57-17.98,86.81-35.23,14.03-5.47,23.48-8.24,42.38-13.79,39.64-11.62,54.53-12.48,68.94-8.17,11.83,3.54,9.78,6.51,20.43,9.7,29.71,8.91,63.64-8.85,83.23-28.6,18.57-18.72,10.87-24.93,27.06-45.45,13.36-16.92,49.2-29.03,120.51-52.09,14.47-4.68,28.16-8.86,46.47-8.17,21.21.79,35.93,7.64,46.47,11.74,30.58,11.91,56.5,12.67,94.47,13.79,62.45,1.83,58.93-23.55,148.09-34.72,37.22-4.66,59.42-2.95,99.57-15.83,23.77-7.63,31.79-13.33,52.09-21.96,56.78-24.13,68.08-11.18,153.19-32.17,57.9-14.28,72.69-25.21,129.19-37.79,7.49-1.67,19.9-4.29,36.26-10.21,29.58-10.71,40.14-20.63,60.77-29.62,23.9-10.41,31.13-6.41,68.94-13.79,52.21-10.19,89.7-28.78,121.02-42.38,38.66-16.79,57.98-25.18,69.45-40.85,31.91-43.62,13.81-113.8-14.3-157.79-6.24-9.76-17.36-24.78-63.83-58.21-50.3-36.19-124.67-88.65-236.94-118.47-22.68-6.02-60.05-15.74-110.3-18.89-52.87-3.32-54.46,4.74-113.87,4.09-78.82-.87-91.33-15.22-170.04-12.77-47.27,1.47-41.5,6.61-68.94,4.6-62.34-4.58-76.83-29.98-145.53-38.81-17.63-2.27-38.48-2.02-80.17-1.53-59.99.7-60.38,4.65-103.66,4.6-73.43-.1-71.85-11.47-129.19-8.68-12.06.59-34.42,2.18-63.32-4.09-16.73-3.62-26.66-7.93-38.81-12.26-29.19-10.39-51.44-13.85-90.38-19.91-12.11-1.89-67.38-10.16-141.96-8.17-15.59.42-82.57,2.63-169.53,21.45-47.1,10.19-70.66,15.29-98.04,27.57-48.23,21.63-83.36,51.03-122.55,84.26-39.63,33.6-28.24,29.67-56.68,52.09-54.94,43.29-91,52.86-127.66,99.57-9.69,12.35-16.37,23.41-20.43,30.64-36.76,41.72-58.48,67.37-72,83.74-10.57,12.81-18.53,22.85-32.17,36.77-9.99,10.2-15.42,14.71-25.53,26.04-1.73,1.94-12.1,13.61-22.47,28.09h0c-8.5,10.62-17.35,22.66-21.45,29.11-7.13,11.21-10.15,21.66-13.79,34.21-2.36,8.14-10.43,37.78-9.19,70.47,1.15,30.43,9.53,41.07,36.77,109.28Z"/>
  </g>
  <g id="notochord">
    <path class="cls-4" d="m2136.43,830.11c9.91,22.84,59.18,13.8,151.66,17.87,73.65,3.24,88.63,11.02,145.02,6.13,17.94-1.56,9.59-1.75,68.43-9.7,63.48-8.58,95.22-12.87,135.83-16.85,30.16-2.96,59.59-12.54,89.87-13.79,5.89-.24,19.97-.66,33.19-9.7,11.54-7.89,23.88-23.35,20.43-34.72-4.62-15.21-35.83-17.67-53.62-18.89-46.55-3.21-79.56,6.71-156.77,28.09-74.23,20.56-85,22.82-103.66,22.47-26.13-.49-27.8-5.36-93.45-17.87-54.4-10.36-82.16-15.5-109.79-13.28-34.19,2.75-23.66,9.01-82.72,18.89-17.7,2.96-36.41,5.37-43.4,18.89-3.53,6.82-3.84,15.98-1.02,22.47Z"/>
  </g>
  <g id="yolk">
    <path class="cls-3" d="m2855.91,1033.85c-41.85,19.27-51,26.23-80.17,40.34-49.77,24.06-100.5,41.19-134.3,52.6-45.11,15.23-54.58,16.09-66.38,29.11-6.25,6.89-18.72,23.31-23.49,94.47-1.92,28.69-3.89,60.38,1.02,103.66,7.41,65.32,25.61,114.14,36.77,143.49,8.37,22.01,12.55,33.01,19.91,46.98,25.66,48.66,58.92,76.12,130.72,132.26,69.73,54.52,104.6,81.77,117.96,90.89,60.35,41.21,172.73,117.97,334.98,166.98,34.76,10.5,196.27,57.32,413.11,40.85,116.16-8.82,243.3-18.48,380.94-95.49,169.82-95.02,259.73-238.92,301.79-321.7,21.43-26.12,56.46-76.26,72-148.09,14.48-66.93,5.03-120.28,2.04-135.32-8.32-41.96-22.91-71.2-34.21-93.45-37.73-74.28-85.88-116.67-129.7-155.23,0,0-69.41-61.09-113.36-64.34-1.2-.09-8.39-.52-17.87-2.55-14.53-3.11-24.69-7.89-27.57-9.19-90.26-40.73-148.6-20.43-148.6-20.43-11.59,4.04-6.5,4.69-41.36,26.55-47.69,29.91-75.98,47.66-112.34,57.7-35.67,9.86-73.09,10.64-126.13,11.74-13.97.29-27.99.14-46.98,5.11-22.69,5.94-29.19,14.06-48,15.83-18.84,1.77-30.72-2.12-48-5.62-22.38-4.53-60.24-12.19-96.51-5.11-37.3,7.29-38.88,23.52-78.64,30.64-24.41,4.37-43.62,1.8-64.85-1.53-136.28-21.37-216.51-43.4-216.51-43.4-36.88-10.13-60.77-17.78-93.45-11.74-7.41,1.37-20.08,4.33-62.81,24Z"/>
  </g>
  <g id="somitic_muscle" data-name="somitic muscle">
    <path class="cls-5" d="m2870.21,798.96c20.18,36.24,80.38,37.12,125.62,37.79,34.83.51,36.95-5.34,84.26-6.64,59.17-1.62,55.87,7.52,105.19,6.13,64.62-1.82,86.17-17.92,146.04-7.66,16.1,2.76,10.94,3.31,31.15,7.15,71.96,13.68,138.45,6.94,158.3,4.6,21.89-2.59,31.49-5.09,49.53-3.06,21.73,2.44,32.73,8.87,59.74,17.87,0,0,23.75,7.92,63.32,16.34,50.86,10.83,66.95,1.88,111.83,6.13,65.02,6.15,64.25,28.05,156.77,46.98,25.38,5.19,93.06,19.04,101.11,1.02,3.38-7.57-5.02-17.98-9.7-24-73.11-94.02-55.22-167.95-129.19-211.91-18.22-10.83-37.61-17.22-38.81-31.66-.81-9.69,6.79-20.52,37.28-40.34,60.63-39.42,85.33-32.19,122.55-63.32,11.98-10.02,47.05-39.35,41.87-72.51-3.29-21.08-21.4-34.49-26.55-38.3-12.18-9.02-26.84-14.07-74.04-16.34-58.84-2.84-57.43,4.55-75.06-1.02-44.46-14.05-38.42-50.88-82.21-73.02-45.34-22.93-62.66,11.07-132.77-10.72-35.37-11-46.84-24.59-84.26-28.09-26.92-2.51-58.17,1.05-62.3,1.53-13.68,1.61-20.51,2.41-27.57,5.11-16.21,6.18-22.8,15.15-33.7,13.28-6.83-1.17-10.86-5.82-14.3-9.19-21.83-21.39-65.19-35.61-86.3-21.45-8.45,5.67-11.64,14.75-13.28,19.4-5.34,15.2-.26,27.17,5.11,47.49,8.25,31.23,14.42,54.57,8.17,80.68-1.46,6.11-4.77,19.34-14.81,32.68-10.17,13.51-21.86,19.97-58.72,36.77-25.92,11.81-38.88,17.72-55.66,24.51-52.33,21.19-53.86,17.97-75.06,29.62-32.86,18.05-31.39,26.99-54.64,34.21-25.97,8.07-34.16-1.12-66.89,1.53-30.47,2.47-51.26,12.68-88.85,31.15-40.74,20.01-61.11,30.02-76.6,49.02-20.41,25.04-45.45,74.32-26.55,108.26Z"/>
  </g>
  <g id="heart">
    <path class="cls-1" d="m2465.28,1274.36c-5.01,2.39-15.01,7.91-30.13,27.06-18.97,24.04-42.24,53.53-38.3,87.32,3.64,31.18,26.87,35.32,23.49,56.68-4.87,30.82-55.11,34.17-57.19,61.28-.6,7.79,2.82,17.14,35.23,45.96,45.99,40.89,74.55,56.68,74.55,56.68,82.82,45.77,110.63,50.6,181.79,88.85,41.97,22.56,89.38,51.57,161.36,76.6,20,6.95,45.47,14.84,48.51,9.19,2.19-4.06-7.95-13.78-31.66-33.7-37.95-31.88-62.85-49.72-90.38-70.98-41.92-32.37-63.36-52.16-73.53-61.79-17.57-16.63-27.85-26.45-39.32-41.36-12.37-16.08-25.94-37.85-40.85-78.13-5.34-14.43-14.68-41.58-38.3-149.11-10.27-46.78-14.4-68.47-33.19-77.62-22.12-10.77-50.86,2.48-52.09,3.06Z"/>
  </g>
  <g id="chondrocranium">
    <path class="cls-2" d="m1660,913.85c-41.36,4.15-72.26,18.4-75.57,19.91-67.68,31.04-142.94,34.77-183.32,36.77-51.39,2.54-85.73-3.67-102.13,19.4-5.57,7.84-11.22,22.08-5.62,32.17,9.46,17.02,43.57,8.9,148.6,2.55,49.41-2.99,50.14-1.69,69.45-4.6,43.07-6.49,50.79-14.65,108.26-30.64,72.58-20.19,106.19-19.93,109.28-36.77,2.31-12.59-14-26.31-22.47-31.66-12.54-7.92-26.39-9.16-46.47-7.15Z"/>
    <path class="cls-2" d="m3020.43,939.49c-20.76,10.88-87.93,46.08-82.72,62.04,1.81,5.56,11.4,5.7,39.06,11.49,27.29,5.71,16.08,5.17,64.34,16.85,48.39,11.71,85.89,18.59,109.45,22.88,29.34,5.34,20.41,3.08,51.57,8.68,25.45,4.57,37.02,7.09,55.73,7.5,12.78.28,23.42-.53,33.7-2.3,7.18-1.23,14.86-2.55,24.44-6.23,11.17-4.29,12.08-6.86,28.41-14.45,8.53-3.97,13.88-6.43,21.45-8.43,10.54-2.78,19.12-3.01,24.51-3.06,38.5-.35,66.63,4.6,66.64,4.6,34.51,6.07,43.14,12.5,63.26,8.07,9.28-2.04,11.74-4.36,23.29-8.84,14.99-5.81,37.27-12.16,67.6-13.12,12.33.41,30.26.6,51.88-.66,32.61-1.91,55.18-3.24,83.44-12.61,24.08-7.99,44.33-19.19,49.07-21.85,10.63-5.98,10.77-6.99,26.81-16.08,12.46-7.06,18.61-9.99,26.81-16.85,10.21-8.55,15.32-12.82,15.32-16.85,0-19.33-100.26-42.15-186.88-45.96-24.2-1.06-42.9-.45-75.06-5.36-41.07-6.28-45.18-12.57-70.46-12.25-25.6.32-27.54,6.85-80.42,17.62-33.39,6.8-50.09,10.2-64.34,9.19-38.62-2.73-48.71-21.14-88.08-30.64-25.75-6.21-44.74-3.89-82.72.77-90.02,11.03-153.92,43.78-196.08,65.87Z"/>
  </g>
</svg>