<?xml version="1.0" encoding="UTF-8"?>
<svg xmlns="http://www.w3.org/2000/svg" viewBox="0 0 5400 2123">
  <defs>
    <style>
      .cls-1 {
        fill: red;
      }

      .cls-1, .cls-2, .cls-3, .cls-4, .cls-5, .cls-6, .cls-7, .cls-8, .cls-9 {
        stroke: #000;
        stroke-miterlimit: 10;
      }

      .cls-1, .cls-3, .cls-4, .cls-6, .cls-7, .cls-8 {
        opacity: .5;
      }

      .cls-2, .cls-8 {
        fill: #ff0a11;
      }

      .cls-2, .cls-9 {
        opacity: .51;
      }

      .cls-3 {
        fill: #00aa29;
      }

      .cls-4 {
        fill: #c8ffb4;
      }

      .cls-5 {
        fill: #ff1050;
        opacity: .52;
      }

      .cls-6 {
        fill: #8eff99;
      }

      .cls-7 {
        fill: #1f00d7;
      }

      .cls-9 {
        fill: #f0c;
      }
    </style>
  </defs>
  <g id="eye">
    <path class="cls-1" d="m1300.51,898.77c-3.86,5.97-25.21,40.21-15.83,84.26,11.92,55.94,64.69,79.15,74.55,83.23,27.18,11.24,51.36,9.5,90.89,6.64,30.42-2.2,45.64-3.3,60.26-11.74,34.42-19.89,50.05-64.09,48.51-100.09-2.57-60.01-50.01-94.9-55.15-98.55-57.3-40.71-123.95-16.72-136.34-12.26-15.8,5.69-46.27,16.66-66.89,48.51Z"/>
  </g>
  <g id="yolk">
    <path class="cls-6" d="m2263.57,1079.02c-4.59,8.07-8.17,16.77-17.36,57.19-9.65,42.44-14.48,63.66-17.87,89.87-4.7,36.32-11.68,90.21.51,157.28,9.17,50.48,17.55,96.6,53.62,134.81,6.78,7.18,5.06,4.04,51.06,46.47,38.17,35.2,48.1,45.42,57.7,60.77.7,1.11,7.78,12.83,21.96,36.26,8.57,14.17,12.86,21.25,13.28,21.96,18.82,31.66,37.99,64.22,37.79,78.13-.02,1.33-.27,6.3,2.55,11.23,1.96,3.43,4.58,5.37,5.62,6.13,64.05,46.64,75.06,52.6,75.06,52.6,51.55,27.89,39.69,24.85,75.06,42.89,42.16,21.51,76.51,34.76,99.57,43.4,139.6,52.3,233.5,87.48,368.68,119.49,52.03,12.32,160.84,38.08,258.89,45.96,435.75,34.99,777.87-273.78,798.13-292.6,197.5-183.43,243.94-369.78,241.53-441.7-.92-27.56-7.66-51.57-7.66-51.57-13.46-47.99-43.7-89.04-141.96-165.96-70.05-54.84-127.16-90.72-138.89-98.04-60.64-37.85-123.05-76.81-208.34-111.83-117.19-48.11-183.57-75.37-271.15-68.43-117.82,9.34-131.7,69.28-245.62,60.26-57.94-4.59-81.73-22.26-157.79-18.89-48.07,2.13-67.16,10.45-113.87,7.15-54.98-3.89-90.28-19.78-120-30.13-111.54-38.83-218.96-25.41-246.64-21.96-70.67,8.82-46.21,22.63-273.19,106.72-13.24,4.91-52.06,24.89-129.7,64.85-28.23,14.53-54.29,28.37-70.98,57.7Z"/>
  </g>
  <g id="somitic_muscle" data-name="somitic muscle">
    <path class="cls-7" d="m2856.94,251.28c-16.02,12.18,30.06,69.54,25.53,131.23-3.37,45.86-33.45,77.14-64.85,109.79-98.31,102.21-211.05,100.45-223.15,170.04-.84,4.82-4.1,23.57,6.13,38.81,14.9,22.2,48.8,22.61,89.87,22.47,150.46-.54,182.14-7.88,250.21-4.09,17.37.97,31.34,2.34,53.11.51,42.4-3.57,58.23-14.57,99.06-17.87,18.7-1.51,31.36-.5,56.68,1.53,81.56,6.54,81.96,23.66,139.4,24,24.04.14,49.71-2.71,87.83,6.13,8.46,1.96,6.63,1.97,22.47,6.13,55.98,14.7,60.66,9.82,91.4,19.4,34.43,10.74,40.69,20.64,73.02,24.51,15.04,1.8,32.51,3.89,37.28-4.09,8.21-13.72-25.54-49.92-49.02-69.96-57.05-48.69-122.9-61.23-131.74-62.81-46.49-8.3-54.14,2.54-77.62-11.23-36.89-21.64-62.79-74.66-49.53-110.3,6.44-17.32,18.6-21.02,17.36-35.23-1.74-20.01-27.91-36.74-50.55-42.38-31.46-7.84-42.64,9.09-59.23-.51-26.08-15.09-4.47-60.4-35.23-86.81-19.68-16.89-52.29-18.75-63.83-19.4-18.29-1.04-21.01,2.54-34.72,0-21.69-4.01-27.99-15.38-54.64-34.21-30.23-21.36-57.37-31.64-81.7-40.85-2.27-.86-19.99-7.48-44.43-12.26-17.22-3.37-25.82-5.05-29.11-2.55Z"/>
  </g>
  <g id="heart">
    <path class="cls-9" d="m2203.32,1260.3c-5.79-2.37-12.26-2.55-12.26-2.55-13.23-.38-17.05,7.11-30.13,7.66-9.11.39-9.37-3.15-18.89-3.06,0,0-12.8.12-25.53,8.68-12.4,8.34-17.78,23.01-24.51,58.72-7.39,39.2-11.08,58.8-10.72,82.72.33,22.34,3.33,51.01,13.28,82.72,5.31,16.92,12.49,39.82,29.62,64.85,25.17,36.79,56.42,55.7,77.11,67.91,40.98,24.21,43.97,13.43,90.89,37.28,14.25,7.24,46.12,28.76,109.28,71.49,37.2,25.17,55.6,37.81,61.28,32.68,5.25-4.75-2.97-22.35-13.28-44.43-5.94-12.71-12.44-24.72-28.6-50.55-20.06-32.07-30.38-48.46-44.43-65.36-12.9-15.53-24.95-27.54-31.15-33.7-13.43-13.33-20.9-19.34-32.17-29.62-23.36-21.29-41.49-41.29-48-49.02-31.75-37.72-39.11-83.24-43.4-109.79-9.97-61.65,1.46-118.52-18.38-126.64Z"/>
  </g>
  <g id="notochord">
    <path class="cls-2" d="m2032.77,788.98c23.65,33.16,96.23,19.08,131.23,5.62,7.65-2.94,18.08-7.61,25.02-10.72,32.87-14.73,42.43-21.54,62.81-30.13,19.07-8.04,33.81-11.81,49.53-15.83,21.37-5.47,74.93-19.17,139.91-14.3,28.01,2.1,56.18-1.79,84.26-1.02,3.71.1,13.04.39,21.96-5.11,11.25-6.93,21.21-22.67,18.38-32.68-9.64-34.16-174.91-25.01-233.87-4.09-5.1,1.81-23.11,8.57-48.51,12.77-20.82,3.44-36.66,3.5-46.47,3.57-57.63.42-86.44.63-104.17,2.55-39.17,4.24-89.87,9.74-104.17,42.38-6.45,14.73-5.1,34.1,4.09,46.98Z"/>
    <path class="cls-8" d="m2021.53,735.36c85.85-53.41,222.34-83.1,495.32-142.47,0,0,296.07-64.39,340.09-152.17,10.86-21.65,15.32-44.43,15.32-44.43.75-3.8,3.49-18.52,3.06-38.81-.14-6.69-1.14-38.27-16.85-78.13-5.67-14.39-14.22-36.09-29.11-54.13-26.16-31.7-57.72-34.92-184.34-65.36-73.16-17.59-61.35-16.2-83.23-20.43-42-8.1-61.36-8.54-173.62-16.85-135.59-10.04-124.72-10.7-145.53-10.72-47.67-.06-73.66,3.4-120-5.11-27.41-5.03-30.07-8.4-69.45-16.34-45.8-9.23-65.82-9.43-100.6-14.81-56.42-8.73-90.12-21.57-118.47-29.62-150.52-42.71-325.48.23-414.13,38.3-30.72,13.19-57.65,24.76-86.81,50.04-25.61,22.21-30.94,35.93-78.64,82.21-21.53,20.89-32.3,31.34-43.91,39.32-30.11,20.69-47.8,22.05-74.04,44.94-9.73,8.48-17.12,16.86-29.11,32.68-34.04,44.93-54.92,83.65-86.3,140.43-44.17,79.9-47.47,84-51.57,101.62-9.51,40.83-8,88.61-7.66,99.57.28,8.81.78,15.64,2.04,23.49,0,0,5.33,33.27,25.02,64.85,44.11,70.77,150.41,94.89,171.06,99.57,29.63,6.72,55.26,6.67,58.72,6.64,17.43-.14,31.12-2.11,39.83-3.57,63.51-10.68,100.24-34.34,145.53-40.34,46.35-6.14,42.42,14.06,162.38,35.74,49.34,8.92,74.57,13.48,109.28,12.26,55.34-1.96,98.28-17.34,145.53-37.28,78.02-32.92,117.03-49.38,200.17-101.11Z"/>
  </g>
  <g id="intestine">
    <path class="cls-4" d="m3594.3,849.23c6.52-11.69,5.54-28.02-2.04-37.79-9.86-12.69-28.99-11.88-44.94-12.26-11.35-.27-51.14-9.37-130.72-27.57-75.97-17.38-61.34-22.6-83.74-22.47-51.88.3-76.54,27.98-145.02,23.49-6.56-.43-12.88-1.31-25.53-3.06-84.69-11.76-99.1-28.87-151.15-29.62-20.6-.3-44.3,2.01-69.45,10.21-24.11,7.86-64.04,20.89-67.4,44.94-3.76,26.91,39.41,59.39,74.55,68.43,11.57,2.98,16.61,1.95,32.68,7.15,22.74,7.35,28.48,14.52,50.04,18.38,7.67,1.38,8.91.82,22.47,3.06,15.7,2.6,26.9,5.47,29.62,6.13,22.29,5.4,53.44,2.34,104.17-1.02,73.14-4.84,83.81-3.45,91.91-2.04,18.79,3.27,23.84,6.68,55.15,12.26,25.04,4.46,39.83,7.09,60.26,7.15,35.78.1,62.68-7.79,70.47-10.21,27.18-8.45,23.95-13.26,56.17-25.53,44.19-16.83,63.06-12.67,72.51-29.62Z"/>
  </g>
  <g id="naris">
    <path class="cls-5" d="m1021.7,830.85c-20.92,15.65-5.98,68.26,4.6,93.45,6.5,15.47,30.74,73.22,89.87,89.36,23.48,6.41,72.81,11.82,91.91-16.34,22.72-33.48-15.41-87.71-19.91-93.96-23.11-32.06-54.11-43.6-104.75-62.44-33.47-12.45-50.44-18.51-61.71-10.07Z"/>
  </g>
  <g id="chondrocranium">
    <path class="cls-3" d="m1663.57,941.66c-.42,13.79,13.94,23.66,18.89,27.06,18.43,12.66,39.19,9.61,44.94,8.68,5.23-.85,29.78-4.83,42.89-26.04,2.74-4.43,12.34-19.96,6.13-33.7-6.52-14.4-25.99-17.06-35.74-18.38-29.92-4.07-52.04,12.59-57.7,16.85-9.2,6.93-19.06,14.36-19.4,25.53Z"/>
  </g>
</svg>