<?xml version="1.0" encoding="UTF-8"?>
<svg id="brain" xmlns="http://www.w3.org/2000/svg" viewBox="0 0 1600 849">
  <defs>
    <style>
      .cls-1 {
        fill: #ff1000;
        opacity: .5;
        stroke: #000;
        stroke-miterlimit: 10;
      }
    </style>
  </defs>
  <path class="cls-1" d="m548,456c.64,34.51.95,51.76,2,58,5.38,32.11,18.02,53.55,43,95,14.04,23.29,29.11,48.3,53.98,78.64,40.82,49.8,71.41,87.12,109.02,101.36,87.77,33.23,214.72-58.83,275.49-151.91,0,0,77.31-118.43,51.51-271.09-2.31-13.69-8.39-43.04-20.87-77.68-13.91-38.62-23.3-64.67-45.45-89.87-27.29-31.05-58.68-43.43-91.68-56.45-56.14-22.14-104.4-24.05-122.28-24.23-39.68-.41-115.48-1.2-174.64,50.04-9.86,8.54-29.71,26.07-43.91,55.15-6.16,12.61-7.65,20-22.17,88.04-11.23,52.61-11.69,54.56-12.55,62.09-2.51,21.96-2.19,42.58-1.45,82.91Z"/>
  <path class="cls-1" d="m467.23,567.13c-5.93,11.21-3.36,12.47-12.26,68.43-4.67,29.39-8.51,40.63-2.04,45.96,4.65,3.84,16.95,1.59,41.36-3.06,17.18-3.27,19.78-4.76,25.53-3.06,12.47,3.67,22.33,17.13,24,30.13,1.1,8.57-2.27,9.85-4.6,27.57-1.39,10.61-2.42,18.47-1.02,27.06,4,24.56,25.23,39.12,27.06,40.34,3.89,2.59,15.25,6.02,37.79,12.77,24.44,7.32,26.48,7.37,28.6,7.15,19.07-1.98,35.62-24.84,40.85-44.43,5.42-20.32-2.59-33.23-41.87-106.21-2.18-4.05-27.66-51.39-69.45-111.32-13.48-19.33-22.69-31.42-37.28-33.19-23.34-2.84-46.41,22.45-56.68,41.87Z"/>
  <path class="cls-1" d="m961.53,730.02c4.47-26.71,22.81-30.46,51.06-65.87,18.18-22.79,31.27-47.15,55.66-68.43,3.37-2.94,10.52-8.93,20.94-10.21,16.42-2.02,29.33,9.11,31.15,10.72,12.49,11.09,14.75,26.54,17.36,44.43,2.78,19.05-1.24,18.05,1.53,38.81,3.08,23.08,9.19,32.83,3.06,40.34-2.92,3.58-4.81,1.99-19.4,9.19-7.12,3.52-13.48,6.65-18.89,11.23-7.92,6.7-10.35,13.55-15.32,23.49-10.83,21.67-17.24,34.49-28.09,40.85-15.36,9-34.7,2.15-48-2.55-9.5-3.36-38.38-13.59-48.51-41.36-1.08-2.97-5.17-14.97-2.55-30.64Z"/>
</svg>