<?xml version="1.0" encoding="UTF-8"?>
<svg xmlns="http://www.w3.org/2000/svg" viewBox="0 0 1600 1655">
  <defs>
    <style>
      .cls-1 {
        fill: #f0a;
      }

      .cls-1, .cls-2, .cls-3, .cls-4, .cls-5, .cls-6, .cls-7, .cls-8, .cls-9 {
        stroke: #000;
        stroke-miterlimit: 10;
      }

      .cls-1, .cls-2, .cls-5, .cls-6, .cls-7, .cls-8 {
        opacity: .5;
      }

      .cls-2 {
        fill: #f0e;
      }

      .cls-3, .cls-4, .cls-9 {
        opacity: .51;
      }

      .cls-3, .cls-5 {
        fill: #b4000b;
      }

      .cls-4 {
        fill: #74ff7f;
      }

      .cls-6 {
        fill: #b4000a;
      }

      .cls-7 {
        fill: #8eff99;
      }

      .cls-8 {
        fill: #ff0a11;
      }

      .cls-9 {
        fill: #f0c;
      }
    </style>
  </defs>
  <g id="brain">
    <path class="cls-8" d="m523.91,137.79c-15.31,13.24-22.8,26.6-36.77,52.09-6.75,12.31-22.02,40.19-29.15,66.13-14.38,52.35,3.52,100.08,20,144,34.11,90.92,90.35,140.04,106,153,21.52,17.82,44.97,36.77,78.3,41.3,16.35,2.22,40.22,5.46,65.36-2.04,5.71-1.71,12.84-4.37,23.49-4.6,13.99-.3,21.85,3.85,36.26,7.66,14.42,3.81,25.21,4.58,39.83,5.62,0,0,32.35,2.3,66.89-7.15,53.19-14.55,88.43-53.79,105.7-73.02,11.98-13.34,85.36-95.03,66.89-165.96-.68-2.6-.33-.77-5.72-17.81-17.19-54.27-20.78-72.97-27.47-91.98-10.69-30.38-25.14-49.81-45.45-77.11-25.57-34.37-51.59-69.36-96-91.4-24.07-11.95-47.41-14.8-94.09-20.51-85.21-10.42-143.03-17.49-182,15-11.55,9.63-18.65,20.4-41.53,36.15-25.23,17.36-33.44,15.84-50.55,30.64Z"/>
  </g>
  <g id="inner_ear" data-name="inner ear">
    <path class="cls-5" d="m445.28,395.66c-11.2,5.6,13.07,44.01-2.55,73.53-14.03,26.52-44.4,15.91-74.04,51.57-13.06,15.72-7.08,17.67-23.49,38.3-21,26.39-37.18,31.21-41.36,50.04-3.29,14.82,3.15,27.91,7.66,36.77,24,47.16,113.81,120.54,203.23,90.89,7.4-2.45,68.99-23.75,78.64-69.96,5.15-24.65-11.89-55.07-45.96-115.91-26.77-47.8-27.74-39.32-38.3-64.34-12.99-30.78-17.95-58.83-44.43-81.7-5.11-4.42-13.97-11.91-19.4-9.19Z"/>
    <path class="cls-3" d="m1080,453.87c-14.39-4.65-31.75,53.4-88.34,117.45-15.4,17.43-28.93,29.9-44.43,55.66-22.13,36.79-22.35,57.61-21.96,65.87.44,9.3,1.51,31.69,18.38,46.47,15.08,13.21,34.72,13.26,42.89,13.28,16.52.04,20.94-5.11,38.3-7.15,19.49-2.28,27.45,2.63,48.51,5.62,28.54,4.05,52.73-.71,101.11-10.21,39.44-7.75,43.24-12.29,44.94-14.81,18.8-27.87-28.21-90.55-35.74-100.6-17.79-23.72-22.51-21.21-50.04-56.68-31.55-40.65-34.42-55.62-35.23-61.28-.59-4.11-1.91-15.98-7.15-31.15-4.88-14.14-7.32-21.2-11.23-22.47Z"/>
  </g>
  <g id="otolith">
    <path class="cls-3" d="m435.57,515.15c-4.01,5.17-4.3,10.74-4.6,16.34-.37,7.17-.71,13.66,3.57,17.87,5.69,5.59,16.9,4.61,24-.51,9.46-6.83,8.82-19.01,8.68-20.94-.54-7.55-4.85-19.19-14.3-20.94-9.44-1.75-16.99,7.69-17.36,8.17Z"/>
    <path class="cls-5" d="m1060.6,573.36c-.67,6.77-1.75,17.62,4.6,28.6.99,1.72,11.28,19.42,24.51,17.36,6.2-.96,11.79-6.26,13.79-12.26,3.17-9.49-3.38-18.54-15.83-35.74-8.51-11.76-14.37-19.69-19.4-18.38-5.78,1.5-7.05,14.32-7.66,20.43Z"/>
  </g>
  <g id="notochord">
    <path class="cls-6" d="m702.13,643.83c-33.8,5.59-39.55,8.87-43.91,14.3-13.94,17.33-9.89,51.76,7.66,64.34,18.97,13.59,35.2-11.59,82.72-6.13,12.54,1.44,48.53,7.46,74.55,12.26,5.86,1.08,16.66,3.1,26.55-2.55,14.37-8.22,16.66-26.83,16.85-28.6,2.45-22.59-15.41-42.03-31.15-50.55-7.36-3.99-13.92-5.4-21.45-6.64-29.14-4.79-60.73-4.88-111.83,3.57Z"/>
  </g>
  <g id="esophagus">
    <path class="cls-4" d="m573.96,835.83c-.35,13.52,52.23,27.59,93.96,32.68,50.54,6.17,48.99-5.24,110.3-2.04,54.62,2.85,79.93,13.17,119.49-1.53,16.85-6.26,36.18-17.02,34.72-23.49-2.09-9.29-44.13,3.21-100.09-11.23-46.72-12.06-46.76-28.37-80.17-29.11-39.96-.89-43.36,22.35-86.81,19.91-22.84-1.28-37.67-8.59-63.32-1.53-5.91,1.63-27.86,7.66-28.09,16.34Z"/>
  </g>
  <g id="yolk">
    <path class="cls-7" d="m488.17,1015.57c-39.56,54.47-38.46,124.64-36.77,149.11,3.38,48.78,20.74,83.71,25.53,92.94,18.9,36.34,42.63,57.85,60.26,73.53,32.5,28.91,44.77,28.69,126.64,76.6,65.54,38.35,67.06,43.98,96,55.15,48.47,18.71,89.63,20.46,118.47,21.45,78.27,2.67,135.24-16.6,249.19-55.15,73-24.69,83.36-33.53,90.89-41.87,58.79-65.1,20.76-183.28,15.32-200.17-17.83-55.4-47.96-92.27-61.28-107.23-63.25-71.08-143.27-93.09-231.83-117.45-41.91-11.53-88.11-24.23-152.17-27.57-87.12-4.55-232.83-12.15-300.26,80.68Z"/>
  </g>
  <g id="heart">
    <path class="cls-9" d="m465.7,1315.83c-13.84,9.95,7.47,72.71,43.4,121.02,10.07,13.54,18.24,21.82,34.17,37.81,0,0,109.06,109.49,189.49,117.43,2.61.26,5.62.51,5.62.51,20.72,1.74,33.98,1.31,46.47,1.53,13.71.24,13.54,1.05,36.77,2.55,31.05,2.01,46.57,3.01,62.3,2.04,30.52-1.88,53.37-9.99,69.45-15.83,28.97-10.52,52.53-24.42,67.4-33.19,10.4-6.13,11.32-7.42,20.43-12.26,15.91-8.45,21.64-9.07,26.55-16.34.84-1.24,6.78-10.34,4.09-20.94-1.82-7.17-6.69-11.48-8.17-12.77-10.43-9.01-25.14-7.18-53.11-4.09-19.27,2.13-36.35,3.93-42.89,4.6-6.08.61-25.67,1.94-64.85,4.6-14.81,1-29.6,2.43-44.43,3.06-6.79.29-9.51.32-14.3,1.02-16.47,2.4-18.94,7.07-34.21,10.21-6.82,1.4-17.17,3.42-29.62.51-8.39-1.96-14.78-5.47-18.89-8.17-151.08-99.29-214.68-141.49-219.06-145.02,0,0-.1-.08-.22-.17-1.23-.99-6.4-5.11-13.57-10.04-18.58-12.78-52.06-35.82-62.81-28.09Z"/>
  </g>
  <g id="ventricle">
    <path class="cls-1" d="m465.19,1316.34c-12.59,9.57,9.45,61.82,29.11,95.49,23.41,40.1,49.74,64.64,81.7,93.96,35.39,32.46,60.8,55.36,101.62,72,36.02,14.69,81.7,23.56,89.87,9.7,6.15-10.43-14.08-25.03-14.3-61.79-.05-8.46,6.57-17.59,2.04-27.06-3.32-6.94-9.79-10.22-12.77-11.74-21.11-10.84-40.32-25.12-61.28-36.26-6.07-3.22-20.39-13.04-49.02-32.68-10.77-7.39-36.67-25.15-70.47-50.04-19.44-14.32-18.8-14-22.98-16.85-27.92-19.08-62.78-42.89-73.53-34.72Z"/>
  </g>
  <g id="atrium">
    <path class="cls-2" d="m890.04,1493.53c-39.34,2.73-83.08,4.61-119.49,34.72-10.92,9.04-13.88,14.61-13.79,19.91.46,26.34,76.49,56.75,144.51,48.51,26.01-3.15,46.31-11.4,76.09-23.49,44.86-18.22,34.04-22.22,72-39.32,4.96-2.24,15.87-6.48,20.43-16.85,4.06-9.25,1.54-19.66-.51-24-10.12-21.39-62.09-7.63-179.23.51Z"/>
  </g>
</svg>