<?xml version="1.0" encoding="UTF-8"?>
<svg xmlns="http://www.w3.org/2000/svg" viewBox="0 0 1600 1527">
  <defs>
    <style>
      .cls-1 {
        fill: #f0a;
      }

      .cls-1, .cls-2, .cls-3, .cls-4, .cls-5, .cls-6, .cls-7, .cls-8 {
        stroke: #000;
        stroke-miterlimit: 10;
      }

      .cls-1, .cls-2, .cls-3, .cls-5, .cls-6, .cls-7, .cls-8 {
        opacity: .5;
      }

      .cls-2 {
        fill: #f0e;
      }

      .cls-3 {
        fill: #74ff7f;
      }

      .cls-4 {
        fill: #ff0a11;
        opacity: .49;
      }

      .cls-5 {
        fill: #b4000a;
      }

      .cls-6 {
        fill: #b4000d;
      }

      .cls-7 {
        fill: #8eff99;
      }

      .cls-8 {
        fill: #f0c;
      }
    </style>
  </defs>
  <g id="brain">
    <path class="cls-4" d="m443.74,241.79c-16.65,65.73,18.4,126.05,49.26,180.21,3.69,6.48,27.23,38.21,74.32,101.66,23.16,31.21,31.69,42.28,48.68,53.34,35.15,22.89,74.15,24.67,92.26,25.3,34.13,1.18,30.86-6.84,66.38-5.62,42.58,1.47,55.36,13.23,89.36,8.68,17.95-2.4,29.82-7.74,49-16.36,10.56-4.75,78.61-36.33,128.7-106.7,1.1-1.55,5.5-8.18,14.3-21.45,31.9-48.11,47.85-72.16,50.04-77.62,18.67-46.53-4.63-98.06-19.4-130.72-13.59-30.05-30.31-51.68-41.87-64.85-15.54-14.13-28.57-25.64-37.79-33.7-55.15-48.24-81.29-67.05-108.77-76.09-6.54-2.15-17.67-5.73-32.68-6.64-20.31-1.23-20.9,4.05-35.23,2.04-22.11-3.1-26.04-16.42-49.02-17.87-3.94-.25-12.97-.44-17.87-.51-10.02-.15-15.85-.07-20.43,0-17.36.25-29.29-1.93-34.72-2.55-21.61-2.46-69.69,5.11-115.26,26.66-10.09,4.77-52.7,25.67-93,71-20.81,23.41-46.16,51.92-56.26,91.79Z"/>
  </g>
  <g id="inner_ear" data-name="inner ear">
    <path class="cls-6" d="m269.62,589.02c-4.91,33.84,10.75,60.43,19.4,74.55,36.88,60.21,103.32,78.52,119.49,82.72,10.25,2.66,130.35,33.13,183.83-34.72,4.26-5.41,18.67-24.17,21.45-51.57,4.27-42.15-23.56-54.96-72.51-139.4-14.7-25.36-44.16-79.36-80.68-126.64-3.24-4.19-23.75-30.5-30.13-27.06-3.2,1.72-2.64,10.79-2.55,12.26.28,4.55,1.54,7.09,3.57,13.28,1.97,5.99,1.79,6.68,4.09,14.81,6.27,22.25,9.23,22.92,9.7,29.62,1.71,24.22-34.9,44.61-37.28,45.96-10,5.68-14.22,4.98-33.19,10.72-16.53,5-40.56,12.27-58.72,24.51-4.72,3.18-40.21,27.88-46.47,70.98Z"/>
    <path class="cls-6" d="m1135.66,404.17c-4.85-.96-8.23,6.63-19.4,19.4-25.45,29.1-38.54,24.76-63.32,50.04-5.92,6.05-16.03,21.73-36.26,53.11-13.58,21.07-24.44,38.13-30.13,48-17.71,30.74-39.12,91.96-22.47,136.85,28.15,75.89,160.86,93.82,249.19,72.51,27.4-6.61,91.37-22.04,105.19-66.89,15.41-50.02-40.1-108.89-59.23-129.19-50.57-53.63-87.22-46.94-106.72-92.94-17.81-42-5.03-88.55-16.85-90.89Z"/>
  </g>
  <g id="heart">
    <path class="cls-8" d="m790.47,1254.89c-44.01-20.57-52.09-26.87-80.68-40.34-60.43-28.48-90.65-42.73-113.36-29.62-23.65,13.65-26.43,48.67-27.06,56.68-2.66,33.5,13.99,58.73,37.28,92.94,14.23,20.9,34.78,51.1,72.51,79.66,22.53,17.06,83.85,63.48,171.57,60.26,12.69-.47,106.79-5.34,166.47-76.6,2.71-3.24,55.54-67.53,34.72-102.13-7.24-12.04-21.68-17.05-50.55-27.06-19.66-6.82-38.76-13.44-62.81-12.77-42.72,1.2-49.2,23.98-85.79,22.47-6.34-.26-14.83-1.3-62.3-23.49Z"/>
  </g>
  <g id="ventricle">
    <path class="cls-1" d="m574.98,1278.38c4.03,13.91,11.03,24.59,25.02,45.96,8.84,13.49,22.45,34.27,42.38,54.64,24.67,25.2,67.16,68.61,101.11,57.7,14.09-4.53,24.03-23.1,43.91-60.26,14.71-27.48,22.42-42.36,21.96-63.83-.17-7.84-1.72-29.75-16.34-50.04-6.21-8.62-11.16-11.93-83.23-47.49-17.9-8.83-37.01-15.15-54.64-24.51-9.16-4.87-18.34-10.18-31.66-10.72-3.54-.14-17.54-.37-29.11,6.64-25.95,15.73-28.33,61.09-19.4,91.91Z"/>
  </g>
  <g id="atrium">
    <path class="cls-2" d="m837.45,1294.21c4.97-3.09,18.46-8.87,45.45-20.43,20.75-8.89,31.12-13.33,34.72-14.3,31.59-8.49,59.39,1.16,89.87,11.74,24.59,8.54,38.01,13.43,44.94,27.06,4.46,8.79,5.63,20.03,1.02,37.28-14.52,54.39-65.85,91.46-73.02,96.51-72.56,51.12-148.11,42.52-176.17,39.32-41.28-4.7-48.4-15.57-50.55-20.43-6.31-14.22,7.98-26.29,34.21-74.55,29.38-54.04,27.6-68.58,49.53-82.21Z"/>
  </g>
  <g id="notochord">
    <path class="cls-5" d="m692.94,684.51c-4.84,5.64-11.99,13.97-12.26,26.04-.3,13.24,7.76,27.16,19.4,32.68,11.79,5.59,19.82-.99,44.94-3.06,15.84-1.31,27.52.07,39.83,1.53,48.36,5.73,64.74,26.63,78.64,17.36,12.1-8.07,10.35-31.03,8.17-41.36-4.74-22.52-21.96-34.84-47.49-53.11-16.06-11.49-27.14-19.19-42.89-19.4-4.08-.05-8.21.4-33.19,10.21-42.57,16.73-49.92,23.01-55.15,29.11Z"/>
  </g>
  <g id="yolk">
    <path class="cls-7" d="m604.6,1063.91c-8.78,10.79-24.6,30.22-18.38,40.85,1.69,2.88,4.52,4.3,36.26,7.66,28.66,3.03,33.21,2.6,38.3-.51,8.93-5.45,14.24-15.92,14.81-25.53.6-10.11-4.18-17.09-12.77-29.62-8.41-12.28-12.61-18.42-19.4-19.91-14.23-3.14-28.68,14.62-38.81,27.06Z"/>
    <path class="cls-7" d="m645.45,1181.36c-1.16-8.43,14.37-13.51,45.45-36.77,28.04-20.98,25.55-24.43,35.74-28.09,33.35-11.96,88.42,14.78,102.64,58.21,5.99,18.31,7.92,49.35-10.21,64.34-12.57,10.39-29.67,8.85-37.28,8.17-17.63-1.58-21.69-8.71-60.77-28.09-21.11-10.47-36.77-17.36-36.77-17.36-29.6-13.03-37.99-14.44-38.81-20.43Z"/>
    <path class="cls-7" d="m893.62,1049.62c-1.56,7.7-.1,12.68,1.53,22.47,4.83,28.91-.3,30.96,4.6,37.79,4,5.59,8.48,5.67,47.49,12.77,26.12,4.75,30.58,5.89,37.79,3.06,10.57-4.14,21.61-14.66,22.98-27.06,2.19-19.81-21.32-35.06-44.43-50.04-15.48-10.04-44.89-29.11-59.74-18.38-7.36,5.31-9.7,16.9-10.21,19.4Z"/>
  </g>
  <g id="esophagus">
    <path class="cls-3" d="m741.96,794.3s-46.39-1.16-113.36,19.4c-29.64,9.1-34.57,14.09-35.23,18.89-.57,4.13.93,15.88,107.74,60.77,73.19,30.75,84.92,30.46,93.96,29.11,29.74-4.44,34.05-20.88,89.87-46.98,43.4-20.29,59.12-18.93,59.74-27.06,1.69-21.9-110.77-51.83-202.72-54.13Z"/>
  </g>
</svg>