<?xml version="1.0" encoding="UTF-8"?>
<svg xmlns="http://www.w3.org/2000/svg" viewBox="0 0 1600 1239">
  <defs>
    <style>
      .cls-1, .cls-2, .cls-3, .cls-4, .cls-5, .cls-6, .cls-7, .cls-8, .cls-9, .cls-10, .cls-11, .cls-12, .cls-13, .cls-14 {
        stroke: #000;
        stroke-miterlimit: 10;
      }

      .cls-1, .cls-2, .cls-5, .cls-8, .cls-9, .cls-10, .cls-12, .cls-13 {
        opacity: .5;
      }

      .cls-1, .cls-4 {
        fill: #ff0080;
      }

      .cls-2, .cls-11 {
        fill: #00aa29;
      }

      .cls-3, .cls-6, .cls-7, .cls-11 {
        opacity: .51;
      }

      .cls-3, .cls-8 {
        fill: #9f0000;
      }

      .cls-4, .cls-14 {
        opacity: .49;
      }

      .cls-5, .cls-6 {
        fill: #950028;
      }

      .cls-7, .cls-14 {
        fill: #9f0048;
      }

      .cls-9 {
        fill: #9f0088;
      }

      .cls-10 {
        fill: #9f0068;
      }

      .cls-12 {
        fill: #9f0008;
      }

      .cls-13 {
        fill: #ff0a11;
      }
    </style>
  </defs>
  <g id="brain">
    <path class="cls-13" d="m318.64,363.32c9.8,61.74,45.85,106.18,48,108.77,19.58,23.59,36.53,33.44,54.64,46.98,53.27,39.83,91.17,102.13,166.98,226.72,38.44,63.18,40.02,71.61,60.04,90.2,63.7,59.16,144.76,63.89,162.6,64.52,24.05.85,70.08,1.92,116.94-24,31.73-17.55,50.43-42.17,87.83-91.4,32.39-42.64,37.16-58.68,84.77-122.55,19.57-26.25,29.35-39.38,38.81-48.51,27.31-26.37,45.96-31.76,93.96-72,12.32-10.32,21.28-18.51,30.13-31.15,0,0,15.2-21.71,21.96-50.04,10.12-42.46-6.37-111.78-51.06-177.7-38.98-57.5-83-88.19-134.81-123.57-49.4-33.74-110.18-75.25-202.92-100.34-125.61-33.99-228.67-15.89-272.71-7.66-35.06,6.55-54.81,13.59-61.57,16.09-58.35,21.55-95.59,54.44-145.53,98.55-5.52,4.87-23.76,24.01-60.26,62.3-5.26,5.52-12.44,13.16-18.89,25.02-4.98,9.16-7.68,17.44-11.74,30.13-2.99,9.34-5.86,18.27-7.66,27.57-4.18,21.57-1.52,39.28.51,52.09Z"/>
  </g>
  <g id="retinal_pigmented_epithelium" data-name="retinal pigmented epithelium">
    <path class="cls-12" d="m114.38,676.85c6.45-6.85.43-15.49,1.53-37.28.38-7.53,1.1-6.5,6.13-34.72,3.37-18.94,4.3-26.44,5.11-30.64,5.68-29.7,36.13-56.75,59.74-69.96,44.4-24.82,90.28-15.01,110.3-10.72,54.91,11.75,88.24,42.84,134.81,86.3,48.02,44.8,76.8,87.51,115.91,145.53,22.25,33.01,28.64,46.04,32.68,55.15,9.68,21.81,30.88,71.23,22.98,135.32-9.94,80.58-59.26,130.51-75.57,146.55-15.35,15.09-33.87,33.3-63.83,44.94-28.36,11.02-61.57,14.04-92.43,16.85-6.94.63-10.41.95-14.3,1.02-31.29.59-54.48-9.62-76.09-19.4-24.77-11.22-37.16-16.83-50.55-29.62-12.45-11.88-12.34-17-33.7-46.47-7.74-10.67-33.35-46-36.77-43.91-2.83,1.73,8.18,30.11,27.57,55.66,14.04,18.5,28.05,29.68,42.89,41.36,18.92,14.89,38.53,30.33,67.4,40.85,28.19,10.28,51.58,10.89,70.47,11.23,26.5.48,76.41,1.37,126.13-23.49,114.14-57.07,128.86-200.68,129.7-210.38,2.64-30.38-.96-53.74-2.04-60.26-7.78-46.71-28.09-78.82-70.98-136.85-61.68-83.46-92.52-125.18-130.72-158.81-61.36-54-101.5-67.67-129.7-73.02-14.27-2.71-34.15-6.29-59.23-1.53-64.84,12.3-99.6,68.04-106.21,78.64-7.11,11.4-16.16,25.9-20.43,46.98-4.45,21.96,1.1,27.31-5.11,53.62-3.82,16.19-8.68,25.89-4.09,30.13,3.91,3.6,13.48,2.15,18.38-3.06Z"/>
    <path class="cls-12" d="m1498.21,784.09c5.49-1.85.2-31.11-4.6-57.7-7.39-40.97-16.26-65.26-18.38-70.98-1.27-3.42-8.16-21.78-14.3-33.19-21.37-39.7-71.03-64.57-110.3-72-84.1-15.9-155.32,41.64-193.53,72.51-33.66,27.2-52.26,52.04-84.77,95.49-61.55,82.25-92.32,123.37-100.09,176.68-17.77,122.01,73.65,217.99,82.72,227.23,13.08,13.33,39.16,39.34,82.21,56.17,41.1,16.07,76.06,15.33,92.94,14.81,18.69-.58,117.54-3.66,145.53-52.6,5.84-10.22,17.19-37.46,35.23-41.36,2.92-.63,11.59-1.86,18.38-8.68,3.69-3.71,5.6-7.84,6.64-10.72-4.9-.22-12.09.11-19.91,3.06-2.41.91-11.77,4.68-25.53,20.94-15.96,18.86-16.25,29.03-32.68,42.38,0,0-4.25,3.45-10.21,7.15-74.03,45.88-158.81,29.62-158.81,29.62-103.46-19.84-153.13-114.44-171.06-148.6-10.7-20.38-27.48-53.22-28.6-98.55-.98-40.04,10.75-69.96,19.4-91.4,7.5-18.56,20.6-45.65,86.3-123.57,42.96-50.96,64.44-76.43,83.74-91.91,40.61-32.57,87.31-70.03,150.13-64.85,58.11,4.79,97.07,43.34,103.15,49.53,12.83,13.06,27.71,28.21,34.72,52.6,9.59,33.34-4.19,53.93,11.23,89.87,6.05,14.11,16.15,29.52,20.43,28.09Z"/>
  </g>
  <g id="retinal_photoreceptor_layer" data-name="retinal photoreceptor layer">
    <path class="cls-6" d="m566.81,878.04c.74,8.41,2.04,23.13-2.04,40.85-1.99,8.63-5.28,18.11-7.15,23.49-3.88,11.18-7.3,18.97-8.17,20.94-2.62,5.92-4.07,8.57-8.17,16.85-6.65,13.44-10.35,21.64-11.74,24.51-9.23,19.01-36.54,49.45-75.06,66.89-9.02,4.09-4.14.88-38.81,13.28-40.39,14.44-41.59,16.85-53.11,17.36-7.14.32-17.22-.14-30.13,4.6-3.39,1.24-15.18,5.57-14.81,9.7.47,5.24,20.24,7.46,26.55,8.17,57.4,6.44,108.26-13.79,108.26-13.79,12.54-4.99,53.64-22.6,90.89-64.34,41.62-46.63,53.68-95.62,56.68-109.28,3.28-14.92,8.99-47.78,2.55-88.34-6.63-41.8-23.82-70.25-58.21-127.15-36.58-60.53-69.83-98.63-81.19-111.32-9.59-10.71-30.29-33.14-59.74-58.21-33.44-28.46-52.68-38.64-61.28-42.89-6.25-3.1-23.15-11.13-46.47-16.85-7.1-1.74-38.48-9.44-40.34-4.6-2.09,5.44,35.23,20.88,75.57,47.49,41.52,27.39,67.85,54.48,88.85,76.09,61.17,62.94,91.56,121.01,116.43,168.51,0,0,26.46,50.55,30.64,98.04Z"/>
    <path class="cls-5" d="m1223.49,631.91c-17.36,10.76-28.7,22.29-60.26,60.26-60.29,72.54-90.43,108.81-100.09,128.68-15.46,31.82-42.9,88.31-29.11,155.23,15.3,74.26,72.83,119.89,95.49,137.87,53.36,42.33,110.33,57.07,107.23,66.89-2.22,7.05-32.94,3.7-38.81,3.06-20.05-2.19-35.43-8.37-46.98-13.79-20.67-9.7-68.25-32.02-105.19-84.77-10.15-14.48-15.96-26.51-27.57-50.55-14.65-30.33-24.36-50.82-28.09-78.64-3.21-23.96-.55-42.63,1.02-53.11,10.14-67.61,51.78-118.24,82.21-155.23,6-7.29,18.04-21.45,37.79-45.96,22.3-27.67,22.3-28.68,29.62-37.28,31.27-36.74,64.46-57.43,83.23-68.94,6.47-3.97,64.9-39.43,74.04-28.6,3.29,3.9-.61,12.86-1.02,13.79-4.74,10.62-16.5,14.84-20.43,16.34-19.76,7.55-35.13,23.58-53.11,34.72Z"/>
  </g>
  <g id="retinal_nuclear_layers" data-name="retinal nuclear layers">
    <path class="cls-7" d="m315.06,1035.83c-10.3,7.33-13.69,11.15-18.13,12.35-1.62.44-3.09.41-3.32.42,0,0-7.24.32-14.81-4.6-12.08-7.85-29.74-46.35-52.09-60.77-21.45-13.83-53.38-9.47-58.21,1.02-2.79,6.06,5.74,10.39,25.02,41.36,12.44,19.98,15.98,29.59,29.62,42.89,4.77,4.65,8.79,7.7,16.85,13.79,21.36,16.14,34.6,21.64,58.72,31.66,4.86,2.02,10.79,4.34,17.36,2.55,6.49-1.76,6.71-5.66,14.81-9.7,5.18-2.59,10.68-3.29,21.45-4.6,10-1.21,13.68-1.01,18.89-1.53,17.01-1.7,18.91-7.87,44.94-16.34,13.67-4.45,14.17-3.07,26.55-7.66,14.74-5.46,25.1-11.49,28.09-13.28,4.05-2.41,18.6-11.35,34.21-27.57,22.82-23.73,33.53-48.1,42.89-69.96,10.46-24.4,17.39-40.59,18.89-64.34,1.56-24.71-3.5-46.02-6.64-59.23-2.81-11.8-6.3-22.75-10.72-34.21-19.03-49.32-50.53-95.91-56.17-104.17-24.51-35.9-55.1-80.73-106.72-125.62-6.23-5.42-43.25-37.61-76.09-55.66-7.21-3.96-19-9.25-35.23-19.91-13.37-8.78-14.98-11.38-21.45-13.79-16.44-6.12-32.93.61-49.53,7.66-18.44,7.83-46.72,19.83-64.85,49.53-7.75,12.69-10.95,26.67-17.36,54.64-4.58,19.97-8.51,37.15-5.62,49.02.67,2.73,2.76,9.55,1.53,18.38-.81,5.82-2.31,7.03-1.53,8.68,3.59,7.66,47.76,7.63,69.96-16.85,21.32-23.51,8.36-54.15,28.09-64.34,10.38-5.36,22.28-1.18,37.28,4.09,16.99,5.96,25.69,14.14,54.64,37.28,40.32,32.23,40.21,32.08,41.87,33.7,13.57,13.25,24.37,28.24,45.96,58.21,20.86,28.96,26.89,40.18,29.62,45.45,3.04,5.88,10.26,20.35,16.85,40.34,5.41,16.4,14.04,43.28,13.79,78.13-.13,17.74-.19,27.18-4.09,39.32-13.23,41.27-54.33,63.29-69.45,70.98-20.14,10.24-37.55,12.53-65.87,32.68Z"/>
    <path class="cls-14" d="m1059.06,829.02c-5.13,10.44-11.47,24.97-16.85,42.89-5.39,17.95-12.98,43.24-11.74,75.06,2.44,62.87,37.61,106.62,46.98,117.96,7.28,8.8,13.75,15.04,20.94,21.96,28.02,26.99,54.03,43.22,68.43,52.09,13.2,8.13,19.79,12.2,28.09,15.83,8.06,3.53,13.19,4.93,20.43,9.7,4.95,3.26,6.7,5.34,11.74,7.15,2.72.97,5.01,1.37,7.15,3.57,2.45,2.53,2.02,4.68,3.57,6.64,3.42,4.31,12.41,2.62,15.32,2.04,35.38-7.06,53.07-10.59,58.21-12.77,28.14-11.92,48.94-20.73,61.79-41.36,3.37-5.4,10.16-17.99,22.98-32.17,6.98-7.72,11-10.66,14.81-12.77,12.64-6.99,23.48-5.12,24-8.17.56-3.26-11.28-8.85-24-12.26-13.73-3.67-36.32-9.71-58.72-.51-29.16,11.98-31.93,39.08-57.7,41.87-8.59.93-15.89-1.26-20.43-3.06-17.29-7.29-45.6-21.89-71.49-50.04-11.82-12.85-50.24-55.85-52.6-118.47-2.21-58.77,28.34-106.21,46.98-134.81,10.1-15.49,52.01-78.55,127.66-109.28,37.79-15.35,52.09-9.71,57.19-7.15,23.57,11.82,16.6,40.99,45.96,71.49,22.93,23.82,56.54,36.44,61.28,30.13,1.69-2.26-1.98-6.01-7.66-19.91,0,0-5.82-14.25-9.19-30.13-4.91-23.12,1.86-28.21-1.53-51.06-2.42-16.25-7.97-28.01-10.72-33.7-12.42-25.74-30.85-40.13-42.89-49.53-23.43-18.29-44.76-25.35-60.77-30.64,0,0-11.39-3.77-31.15-5.62-14.95-1.4-20.59-.06-23.49,3.57-2.15,2.7-.93,4.34-4.09,11.74-1.88,4.41-3.6,8.45-7.15,11.74-4.13,3.83-7.24,3.44-14.81,6.64-2.98,1.26-5.5,2.59-14.81,8.68-10.94,7.16-38.78,25.81-46.47,31.66-20.58,15.66-86.11,83.65-155.23,190.98Z"/>
  </g>
  <g id="retinal_inner_plexieform_layer" data-name="retinal inner plexieform layer">
    <path class="cls-10" d="m276.77,625.79c4.4,7.25,9.44,11.66,10.72,12.77,13.4,11.52,44.75,37.31,57.19,49.02,11.42,10.75,17.53,19.66,29.62,37.28,18.7,27.25,49.85,72.65,55.66,134.81,2.56,27.4,5.78,61.84-14.81,89.87-8.09,11.02-12.57,10.05-46.98,36.77-26.11,20.28-55.26,45.24-53.62,47.49.88,1.2,9.8-5.19,30.13-15.32,26.5-13.2,28.06-10.67,44.43-19.91,9.86-5.57,27.21-15.57,42.89-34.72,5.02-6.13,12.52-15.36,17.87-29.11,3.37-8.66,7.16-22.22,5.62-50.55-.94-17.28-2.88-47.62-18.38-84.77-8.98-21.5-18.41-35.1-37.28-62.3-15.9-22.92-33.17-47.54-60.77-74.04-29.57-28.4-63.67-51.93-66.89-48.51-1.35,1.43,2.5,7.78,4.6,11.23Z"/>
    <path class="cls-10" d="m1311.83,696.77c-1.05-1.36-9.71,3.58-16.85,7.66-7.23,4.13-20.26,11.65-34.21,23.49-40,33.95-64.85,73.53-64.85,73.53-23.77,37.85-49.22,78.39-45.96,134.3,3.6,61.59,39.76,102.52,50.55,114.38,31.81,34.96,71.79,53.18,74.55,49.53,3.9-5.16-75.51-42.41-98.55-120-19.97-67.24,11.88-132.84,18.38-145.53,25.05-48.9,74.83-95.31,83.23-103.15,12.43-11.59,35.55-31.81,33.7-34.21Z"/>
  </g>
  <g id="retinal_ganglion_cell_layer" data-name="retinal ganglion cell layer">
    <path class="cls-9" d="m1313.87,696.26c-2,1.9-3.86,4.09-9.7,9.7-6.24,6-11.06,10.19-12.26,11.23-11.53,10.09-33.13,31.87-39.32,38.3-16.27,16.89-40.03,41.56-58.21,79.66-17.72,37.13-21.8,69.51-22.98,81.7-1.41,14.62-2.71,28.05,0,45.45,10.67,68.63,70.44,114.02,81.7,120,1.86.99,9.22,4.32,16.34,11.74,4.44,4.63,4.19,6.06,7.15,8.17,9.92,7.08,25.85.42,28.09-.51,11.29-4.72,21.27-14.63,24.51-23.49,11.45-31.3-58.32-57.42-79.15-122.55-12.92-40.42-6.89-95.55,21.45-130.72,15.45-19.18,61.41-62.06,110.3-84.77,5.73-2.66,19.78-8.89,22.47-20.94,3.06-13.7-9.26-31.94-25.02-37.28-5.86-1.99-10.71-1.49-20.43-.51-12.79,1.29-32.15,2.64-44.94,14.81Z"/>
    <path class="cls-9" d="m234.38,595.15c3.7.77,4.67,1.26,28.09,10.72,4.38,1.77,5.55,2.24,7.15,3.57,6.05,5.06,5.04,11.6,9.19,18.89,3.56,6.25,8.6,8.98,12.77,11.74,20.98,13.91,59.91,55.2,61.79,57.19,30.61,32.47,46.05,65.69,53.11,81.19,6.57,14.43,14.74,35.29,20.43,61.28,5.74,26.22,10.44,48.93,3.06,76.6-2.48,9.3-5.27,19.78-13.28,31.15-17.55,24.92-47.25,35.81-66.89,52.6-1.86,1.59-6.13,5.36-12.77,10.72-6.67,5.39-7.8,5.96-10.72,8.68-6.67,6.2-6.65,8.63-12.26,14.81-6.21,6.84-12.75,14.05-21.45,14.3-7.11.2-12.6-4.33-17.87-8.68-6.47-5.34-9.64-10.57-14.3-17.87-16.22-25.47-17.14-24.03-17.87-27.06-6.06-25.24,77.83-41.79,107.74-98.55,28.33-53.76-3.71-120.89-13.28-140.94-17.16-35.96-61.49-101.49-107.23-100.09-8.09.25-28.35,2.97-32.68-5.62-1.28-2.53-.08-3.9,3.06-18.89,2.87-13.69,2.72-16.6,5.62-22.98,2.67-5.88,4.62-10.18,9.19-12.77,5.21-2.95,10.57-1.83,19.4,0Z"/>
  </g>
  <g id="lens">
    <path class="cls-8" d="m1357.79,761.11c-43.85,11.41-67.89,44.73-77.62,58.21-10.78,14.95-50.06,74.69-26.04,142.47,17.73,50.02,58.91,73.31,67.91,78.13,56.05,29.99,123,17.24,167.49-15.32,10.55-7.72,61.75-45.19,63.32-108.26,1.45-58.37-40.65-96.35-56.68-110.81-11.21-10.12-69.2-62.42-138.38-44.43Z"/>
    <path class="cls-3" d="m53.62,781.02c-6.99,35.43,2.22,64.01,6.13,77.11,4.87,16.29,19.32,64.67,65.87,89.87,37.94,20.54,75.69,14.03,91.91,11.23,12.11-2.09,77.72-13.39,111.83-74.04,5.55-9.87,25.81-47,16.34-94.98-10.16-51.48-47.38-79.3-59.23-87.32-45.06-30.48-92.31-24.16-108.77-21.96-6.43.86-87.18,12.78-114.89,70.98-5.77,12.12-8.19,24.05-9.19,29.11Z"/>
  </g>
  <g id="cornea">
    <path class="cls-1" d="m55.8,679.25c-4.52,3.85-5.54,8.96-6.89,14.55-4.9,20.25-14.07,39.22-20.68,58.98-5.25,15.68-6.21,17.55-7.66,22.21-12.38,39.72-2.95,96.47,25.28,137.1,14.44,20.79,21.01,18.94,45.96,52.08,4.17,5.54,9.42,12.82,19.15,19.15,17.36,11.31,41.22,14.55,44.42,8.43,4.03-7.71-28.73-22.52-62.81-68.17-22.46-30.09-31.11-54.31-33.7-62.04-4.18-12.46-10.03-29.93-9.96-52.85.09-29.66,10.07-55.36,20.68-82.72,10.77-27.76,19.05-40.54,13.02-47.49-5.2-6-19.31-5.62-26.81.77Z"/>
    <path class="cls-4" d="m1514.87,802.56c1.06,9.22,8.55,10.89,17.62,25.28,4.97,7.88,6.93,14.06,10.72,26.04,3.36,10.59,10.22,32.23,10.72,55.15.26,11.63-.57,48.8-23.74,80.42-25.62,34.96-59.84,37.62-84.25,76.59-6.19,9.88-9.61,18.68-6.13,24.51,3.71,6.22,14.21,7.26,21.45,6.13,13.32-2.09,20.82-12.43,37.53-34.47,32.59-42.98,28.59-36.02,32.93-42.89,15.8-25,45.96-72.72,42.13-131.74-.56-8.6-1.26-19.33-5.36-32.93-9.24-30.62-23.48-35.13-29.87-65.1-1.5-7.05-2-12.83-5.36-13.79-6.18-1.76-19.93,13.37-18.38,26.81Z"/>
  </g>
  <g id="chondrocranium">
    <path class="cls-11" d="m725.62,945.45c-13.21,10.21-24.44,18.9-25.02,33.19-.49,12.03,6.69,24.77,17.36,30.13,19.8,9.95,43.42-9.66,52.09-16.85,9.44-7.84,24.7-20.5,23.49-38.81-.61-9.17-5.43-20.95-15.32-26.04-17.3-8.91-39.38,8.16-52.6,18.38Z"/>
    <path class="cls-2" d="m805.79,980.17c5.84,20.22,24.21,28.33,26.04,29.11,14.16,5.97,36.91,6.84,45.45-6.13,7.59-11.53,1.11-28.41-4.6-36.77-2.88-4.23-6.52-7.24-13.79-13.28-9.87-8.19-14.8-12.29-21.45-13.79-.91-.2-16.89-3.56-27.06,6.64-11.31,11.35-5.85,29.88-4.6,34.21Z"/>
  </g>
</svg>