<?xml version="1.0" encoding="UTF-8"?>
<svg xmlns="http://www.w3.org/2000/svg" viewBox="0 0 1600 1354">
  <defs>
    <style>
      .cls-1 {
        fill: #1f00d7;
        opacity: .51;
      }

      .cls-1, .cls-2, .cls-3, .cls-4, .cls-5 {
        stroke: #000;
        stroke-miterlimit: 10;
      }

      .cls-2 {
        fill: #b4002a;
      }

      .cls-2, .cls-4, .cls-5 {
        opacity: .5;
      }

      .cls-3 {
        fill: #c8ffb4;
        opacity: .49;
      }

      .cls-4 {
        fill: #94e7dd;
      }

      .cls-5 {
        fill: #b4000a;
      }
    </style>
  </defs>
  <g id="notochord">
    <path class="cls-5" d="m750,470c-1.72,1.09-3.49,5.27-7.02,13.64-3.74,8.86-5.61,13.3-6.64,17.87-3.53,15.77,4.89,18.44,1.53,31.66-1.57,6.17-6.35,17.23-16.34,24-4.65,3.15-9.4,4.68-9.19,7.15.25,2.94,7.15,2.48,12.77,7.66,4.4,4.06,5.48,9.24,7.15,17.87,2.99,15.44-.9,15.32,2.04,25.02,1.07,3.53,1.22,2.34,11.74,24.51,1.27,2.67,2.12,4.49,3.06,7.15,3.13,8.83,2.46,13.51,3.57,17.87,2.45,9.6,11.37,9.23,21.96,19.91,14.39,14.52,11,28.38,19.4,30.13,5.33,1.11,7.26-4.35,26.04-20.43,11.02-9.44,20.37-16.13,30.64-29.11,4.11-5.2,6.44-8.95,6.64-13.79.31-7.33-4.55-10.15-4.6-17.87-.01-2.05.31-5.12,6.13-15.32,8.34-14.63,12.19-16.25,15.32-23.49,3.35-7.76,2.56-14.31,1.02-27.06-.74-6.11-4.12-30.51-19.91-55.66-7.8-12.43-15.66-20.3-19.91-24.51-3.7-3.66-5.59-5.51-7.66-6.64-12.01-6.53-21.1,3.65-37.28,3.06-21.21-.77-31.62-19.22-40.47-13.64Z"/>
  </g>
  <g id="spin_cord" data-name="spin cord">
    <path class="cls-2" d="m750.64,327.89c-25.13,19-24.74,51.43-24.51,70.98.16,13.63.47,39.54,19.4,60.77,3.24,3.63,20.4,22.86,44.43,23.49,9.77.25,19.63-2.59,26.55-4.6,9.38-2.71,15.26-4.41,20.94-8.68,10.33-7.77,13.54-19.22,16.85-31.66,2.34-8.79,6.67-25.81,3.06-48-2.72-16.74-8.81-54.22-40.85-68.94-20.29-9.32-46.97-7.65-65.87,6.64Z"/>
  </g>
  <g id="somitic_muscle" data-name="somitic muscle">
    <path class="cls-1" d="m781.28,309c3.47-8.22-10.5-22.66-20.94-30.64-20.1-15.37-56.6-29.35-89.87-14.81-16.61,7.26-25.25,18.49-39.32,37.28-21.5,28.7-48.22,62.77-48,105.19.16,30.4,12.43,39.6,26.72,71.21,6.13,13.55,9.58,23.44,14.13,39.09,10,34.38,19.56,67.22,8.17,101.11-4.56,13.58-12.02,35.75-27.06,50.55-2.74,2.7-10.19,9.53-14.3,20.94-.6,1.67-2.17,6.34-3.06,17.87-.95,12.27-.4,22.93.51,31.66,2.04,19.58,6.4,34.2,7.66,38.3,6.43,20.87,14.81,35.36,20.43,44.94,10.8,18.42,16.05,27.82,24,33.7,27.55,20.37,64.06,10.78,74.04,7.66,38.69-12.09,56.11-44.81,60.26-52.6,6.63-12.44,20.78-39.02,12.77-61.79-2.24-6.36-6.9-14.39-5.62-26.04,1.09-9.92,5.4-12.64,4.09-20.43-1.35-8-7.3-13.48-14.3-19.91-9.6-8.83-13.94-8.28-17.36-15.32-2.42-4.98-.76-6.29-3.57-15.32-1.98-6.35-3.94-9.33-7.15-15.83-5.05-10.22-8.02-16.22-9.7-23.49-4-17.25,2.64-26.78-4.6-34.72-3.55-3.9-7.66-6.64-7.66-6.64-5.81-3.88-9.33-4-9.7-6.13-.49-2.75,5.08-4.43,11.23-9.7,1.21-1.04,12.82-11.24,14.3-25.02.68-6.33-1.6-5.74-2.04-15.32-.17-3.67-.57-15.04,4.6-27.06,4.19-9.76,8.34-11.29,8.17-17.87-.16-6.37-4.2-10.89-6.13-13.28-7.91-9.78-10.38-20.65-15.32-42.38-5.68-25.02-3.05-61.6,15.83-79.66,9.93-9.5,19.4-14.81,19.4-14.81,11.6-6.51,17.5-6.22,19.4-10.72Z"/>
    <path class="cls-1" d="m792.51,306.96c-2.82-14.11,36.6-43.38,78.64-41.36,7.05.34,27.2,1.57,45.96,15.32,24.95,18.29,36.91,50.99,56.17,103.66,2.23,6.1,5.77,16.23,14.3,27.06,8.65,11,14.24,12.32,18.89,19.4,7.19,10.95,5.66,25.79-1.53,48-19.93,61.52-48.47,71.98-46.98,108.77.41,10.15,3.59,19.9,9.94,39.39,8.65,26.53,13.43,28.57,21.81,53.44,2.32,6.89,9.35,28.66,12.67,57.81,2.05,17.94,3.23,28.3,1.53,42.38-4.42,36.76-23.94,61.58-30.13,68.94-9.9,11.76-22.62,26.87-44.94,33.7-24.54,7.51-45.71.44-57.7-3.57-5.92-1.98-65.83-22.92-74.55-70.47-1.49-8.1-3.74-29.25,5.62-50.04,7.39-16.41,19.1-26.12,16.34-41.36-.93-5.14-3.44-10.59-1.02-17.36,1.48-4.14,3.9-6.24,10.21-11.74,14.37-12.53,22.01-19.28,27.57-28.6,2.14-3.58,3.45-6.68,3.06-10.21-.54-4.91-3.91-6.48-5.11-11.23-1.18-4.73.67-9.04,3.06-13.79,7.51-14.92,13.76-21.22,17.36-28.09,6.07-11.56,3.89-23.3,1.02-38.81-5.15-27.81-21.15-49.33-22.47-51.06-9.47-12.48-17.02-17.15-16.34-26.55.47-6.5,4.4-8.8,10.72-20.94,0,0,4.97-9.54,9.19-23.49,11.24-37.16-4.71-74.13-7.15-79.66-2.96-6.7-5.45-12.35-10.72-18.89-18.92-23.46-43.52-21.02-45.45-30.64Z"/>
  </g>
  <g id="pronephric_duct" data-name="pronephric duct">
    <path class="cls-4" d="m739.4,923.81c-1.44,8.29,5.14,15.24,7.15,17.36,7.15,7.55,20.36,12.92,32.68,7.66,9.74-4.15,18.73-14.87,16.85-25.02-2.45-13.2-22.1-19.05-35.74-16.34-.83.17-18.79,3.98-20.94,16.34Z"/>
    <path class="cls-4" d="m795.57,898.79c-4.69,8.69,1.19,19.28,4.09,24.51,3.72,6.73,10.03,18.13,22.47,19.4,11.47,1.17,23.48-6.76,26.55-17.36,2.15-7.4-.66-14.07-2.04-17.36-1.19-2.84-5.06-10.88-14.3-15.83-2.14-1.14-11.99-6.01-23.49-2.55-3.02.91-9.93,2.98-13.28,9.19Z"/>
  </g>
  <g id="intestine">
    <path class="cls-3" d="m774.13,983.04c-14.49,17.52-13.61,38.13-13.28,43.91.26,4.5,1.52,18.31,10.72,32.68,4.17,6.51,19.65,30.7,41.87,29.11,20.63-1.48,32.19-24.11,34.21-28.09,14.88-29.16-1.63-59.48-4.09-63.83-3.04-5.38-18.69-33.03-41.36-31.66-14,.85-23.5,12.33-28.09,17.87Z"/>
  </g>
</svg>